<?xml version="1.0" encoding="UTF-8"?>
<svg width="2177px" height="949px" viewBox="0 0 2177 949" version="1.1" xmlns="http://www.w3.org/2000/svg" xmlns:xlink="http://www.w3.org/1999/xlink">
    <!-- Generator: Sketch 51.1 (57501) - http://www.bohemiancoding.com/sketch -->
    <title>Artboard</title>
    <desc>Created with Sketch.</desc>
    <defs></defs>
    <g id="Artboard" stroke="none" stroke-width="1" fill="none" fill-rule="evenodd">
        <g id="Group-3" transform="translate(33.000000, 115.000000)">
            <g id="Logo-Copy">
                <polygon id="Path-12" fill="#682C92" points="297.692308 0 720 0 720 401.538462"></polygon>
                <polygon id="Path-13" fill="#25ABE2" points="229.787234 0 720 480 720 720 490.212766 720 0 225 0 0"></polygon>
                <polygon id="Path-14" fill="#25ABE2" points="0 283.846154 422.307692 720 0 720"></polygon>
            </g>
            <path d="M889.272,306 L889.272,79.2 L915.516,79.2 L1040.58,259.668 L1040.58,79.2 L1066.5,79.2 L1066.5,306 L1040.58,306 L915.516,126.18 L915.516,306 L889.272,306 Z M1129.032,221.76 C1129.032,259.668 1154.628,286.884 1190.592,286.884 C1226.88,286.884 1252.8,259.344 1252.8,221.76 C1252.8,184.5 1226.88,156.636 1190.592,156.636 C1154.304,156.636 1129.032,184.824 1129.032,221.76 Z M1102.788,221.76 C1102.788,170.892 1140.696,133.308 1190.916,133.308 C1241.784,133.308 1278.72,171.216 1278.72,221.76 C1278.72,272.304 1241.136,310.212 1190.592,310.212 C1140.048,310.212 1102.788,272.952 1102.788,221.76 Z M1386.936,133.308 L1386.936,158.904 C1348.38,158.904 1337.04,189.36 1337.04,225.324 L1337.04,306 L1311.444,306 L1311.444,137.52 L1336.716,137.52 L1336.716,165.708 C1342.548,148.86 1361.34,133.308 1386.936,133.308 Z M1417.392,137.52 L1417.392,102.204 L1442.988,102.204 L1442.988,137.52 L1479.924,137.52 L1479.924,159.228 L1442.988,159.228 L1442.988,246.06 C1442.988,277.488 1452.06,284.94 1474.092,284.94 C1477.332,284.94 1481.22,284.616 1481.22,284.616 L1481.22,307.296 C1481.22,307.296 1474.416,308.268 1465.668,308.268 C1431.972,308.268 1417.392,286.236 1417.392,248.328 L1417.392,159.228 L1397.628,159.228 L1397.628,137.52 L1417.392,137.52 Z M1586.52,133.308 C1625.724,133.308 1646.136,162.468 1646.136,200.7 L1646.136,306 L1620.54,306 L1620.54,199.728 C1620.54,172.836 1603.368,156.636 1580.688,156.636 C1554.768,156.636 1536.624,175.752 1536.624,203.616 L1536.624,306 L1511.028,306 L1511.028,71.748 L1536.624,71.748 L1536.624,161.82 C1544.724,146.592 1563.516,133.308 1586.52,133.308 Z M1677.564,222.408 C1677.564,168.624 1714.5,133.308 1759.212,133.308 C1808.784,133.308 1839.24,168.948 1839.24,219.492 C1839.24,220.464 1839.24,224.028 1838.916,227.268 L1703.808,227.268 C1704.132,264.852 1729.404,287.532 1764.396,287.532 C1792.908,287.532 1808.784,272.628 1816.884,261.288 L1833.732,273.6 C1824.336,289.476 1802.304,310.212 1764.072,310.212 C1712.88,310.212 1677.564,274.248 1677.564,222.408 Z M1705.104,208.152 L1812.996,208.152 C1811.376,173.16 1787.076,155.34 1759.212,155.34 C1731.672,155.34 1707.048,176.4 1705.104,208.152 Z M1947.132,133.308 L1947.132,158.904 C1908.576,158.904 1897.236,189.36 1897.236,225.324 L1897.236,306 L1871.64,306 L1871.64,137.52 L1896.912,137.52 L1896.912,165.708 C1902.744,148.86 1921.536,133.308 1947.132,133.308 Z M2051.136,133.308 C2090.34,133.308 2110.428,162.468 2110.428,200.7 L2110.428,306 L2084.832,306 L2084.832,199.728 C2084.832,172.836 2067.984,156.636 2044.98,156.636 C2019.06,156.636 2001.24,175.752 2001.24,203.616 L2001.24,306 L1975.644,306 L1975.644,137.52 L2000.916,137.52 L2000.916,161.82 C2009.016,146.592 2027.808,133.308 2051.136,133.308 Z M889.596,684 L889.596,457.2 L952.128,457.2 C995.22,457.2 1019.52,479.232 1019.52,515.196 C1019.52,537.876 1008.18,555.372 990.36,565.092 C1012.068,572.868 1027.296,591.984 1027.296,619.524 C1027.296,660.348 997.812,684 958.932,684 L889.596,684 Z M915.84,555.372 L955.044,555.372 C977.724,555.372 992.628,540.144 992.628,517.14 C992.628,494.784 979.344,480.528 955.044,480.528 L915.84,480.528 L915.84,555.372 Z M915.84,660.996 L954.396,660.996 C981.288,660.996 1000.08,648.036 1000.08,618.876 C1000.08,589.068 980.316,577.404 954.072,577.404 L915.84,577.404 L915.84,660.996 Z M1062.288,684 L1062.288,449.748 L1087.884,449.748 L1087.884,684 L1062.288,684 Z M1146.852,599.76 C1146.852,637.668 1172.448,664.884 1208.412,664.884 C1244.7,664.884 1270.62,637.344 1270.62,599.76 C1270.62,562.5 1244.7,534.636 1208.412,534.636 C1172.124,534.636 1146.852,562.824 1146.852,599.76 Z M1120.608,599.76 C1120.608,548.892 1158.516,511.308 1208.736,511.308 C1259.604,511.308 1296.54,549.216 1296.54,599.76 C1296.54,650.304 1258.956,688.212 1208.412,688.212 C1157.868,688.212 1120.608,650.952 1120.608,599.76 Z M1463.4,534.312 L1454.652,556.344 C1447.848,549.216 1430.352,534.96 1404.756,534.96 C1369.44,534.96 1344.492,563.148 1344.492,599.76 C1344.492,636.048 1370.736,664.884 1405.404,664.884 C1431.972,664.884 1448.82,649.332 1455.624,642.528 L1463.4,664.236 C1456.596,671.364 1435.86,688.212 1404.432,688.212 C1354.212,688.212 1317.924,649.656 1317.924,599.76 C1317.924,549.864 1355.184,511.308 1404.108,511.308 C1434.888,511.308 1454.652,525.888 1463.4,534.312 Z M1495.152,684 L1495.152,449.748 L1520.748,449.748 L1520.748,587.772 L1589.436,515.52 L1621.836,515.52 L1549.26,591.012 L1626.048,684 L1593,684 L1520.748,594.252 L1520.748,684 L1495.152,684 Z" id="Northern-Block" fill="#808080"></path>
        </g>
    </g>
</svg>