<svg xmlns="http://www.w3.org/2000/svg" viewBox="0 0 238.76 211.97"><defs><style>.cls-1{fill:#02835e;}.cls-2{fill:#fff;}.cls-3{fill:#28a167;}</style></defs><title>Artboard 1</title><g id="Isolation_Mode" data-name="Isolation Mode"><path class="cls-1" d="M42.75,171.22,30.09,204.57h8.08l2.56-8H51.52l2.46,8h8.23L50,171.22Zm-.15,19.31,1-3q.52-1.53,1-3t.86-2.78q.39-1.3.69-2.24.3.89.69,2.19t.86,2.78q.47,1.48,1,3t1,3ZM25,198.68a13.58,13.58,0,0,1-3.37.42,6,6,0,0,1-3.28-.84,6.1,6.1,0,0,1-2.09-2.31,11.14,11.14,0,0,1-1.11-3.57,30.55,30.55,0,0,1-.32-4.61,19.16,19.16,0,0,1,1.45-8.25,4.85,4.85,0,0,1,4.66-3,6.3,6.3,0,0,1,2.56.57,7.72,7.72,0,0,1,2.66,2.24l4.43-4.48A15.34,15.34,0,0,0,29,173.33a9.78,9.78,0,0,0-2-1.3,11.87,11.87,0,0,0-2.64-.91,15.73,15.73,0,0,0-3.47-.34,15.37,15.37,0,0,0-6.58,1.3,12.67,12.67,0,0,0-4.63,3.64,15.84,15.84,0,0,0-2.76,5.54,25.64,25.64,0,0,0-.91,7q0,7.93,3.5,12.24t11.08,4.31a25.78,25.78,0,0,0,5.32-.49,22,22,0,0,0,3.84-1.13L28,197.72A25,25,0,0,1,25,198.68ZM116.48,184c0,.53,0,1.13,0,1.82s.07,1.4.12,2.14.09,1.45.12,2.14.07,1.3.1,1.82l-.84-1.4q-.49-.81-1.06-1.7l-1.11-1.75-1-1.55-9.61-14.29H96.63v33.35h8.13l-.15-12.81q0-.69,0-1.72t-.12-2.12q-.07-1.09-.15-2.14c0-.71-.09-1.31-.12-1.8q.34.54.86,1.41t1.08,1.77l1.08,1.75c.34.56.62,1,.81,1.28l9.51,14.38h6.95V171.22h-8.13Zm-32.69,0c0,.53,0,1.13,0,1.82s.07,1.4.12,2.14.09,1.45.12,2.14.07,1.3.1,1.82l-.84-1.4c-.33-.54-.68-1.11-1.06-1.7l-1.11-1.75-1-1.55-9.61-14.29H63.94v33.35h8.13l-.15-12.81q0-.69,0-1.72t-.12-2.12q-.07-1.09-.15-2.14l-.12-1.8q.35.54.86,1.41l1.08,1.77,1.08,1.75c.34.56.62,1,.81,1.28l9.51,14.38h6.95V171.22H83.64Zm120.76,4.14a9.68,9.68,0,0,0-2.44-2,28.19,28.19,0,0,0-3.45-1.72,26,26,0,0,1-2.66-1.23,9.4,9.4,0,0,1-1.77-1.21,4.68,4.68,0,0,1-1-1.25,3.49,3.49,0,0,1-.4-1.48,2.27,2.27,0,0,1,.84-1.8,3.88,3.88,0,0,1,2.56-.71,6.92,6.92,0,0,1,1.94.3,14.35,14.35,0,0,1,2,.74q1,.44,1.8.91t1.43.76L206.2,174a14.83,14.83,0,0,0-2-1.16,18.36,18.36,0,0,0-2.59-1,25.92,25.92,0,0,0-3.08-.74,19.39,19.39,0,0,0-3.42-.29,13.21,13.21,0,0,0-4.21.66,10.92,10.92,0,0,0-3.52,1.92,9.62,9.62,0,0,0-2.44,3,8.43,8.43,0,0,0-.91,4,9.42,9.42,0,0,0,.62,3.54,8.74,8.74,0,0,0,1.78,2.76,12.54,12.54,0,0,0,2.83,2.22,29.56,29.56,0,0,0,3.84,1.87,15.11,15.11,0,0,1,3.42,1.8,3.16,3.16,0,0,1,1.21,2.68,3.71,3.71,0,0,1-1,2.73,4.15,4.15,0,0,1-3,1,6.65,6.65,0,0,1-2.22-.44,25.81,25.81,0,0,1-2.41-1c-.79-.38-1.5-.76-2.12-1.13s-1.05-.65-1.28-.81L183,201.32q.88.54,2.12,1.16a26.3,26.3,0,0,0,2.71,1.16,21.7,21.7,0,0,0,3.22.89,19,19,0,0,0,3.67.34,13.46,13.46,0,0,0,4.88-.84,10.84,10.84,0,0,0,3.69-2.32,10,10,0,0,0,2.34-3.47,11.19,11.19,0,0,0,.81-4.26,10.12,10.12,0,0,0-.49-3.3A7.94,7.94,0,0,0,204.54,188.11Zm3.42-16.9v6h7.93v27.39H224V177.18h7.69l1-6Zm-39.64,19h10l.94-5.86H168.33v-7.14h13.1v-6H160.2v33.35h21.92v-6H168.33Zm-24.12-.46-1.87,5-1.87-5-6.89-18.51h-7.15l12.46,33.35h6.9l12.46-33.35H151.1Z"/><polygon class="cls-2" points="138.26 170.92 138.37 171.22 142.33 181.86 146.3 171.22 146.41 170.92 138.26 170.92"/><polygon class="cls-2" points="150.03 171.22 148.97 171.22 142.33 189.03 135.7 171.22 134.63 171.22 133.56 171.22 140.46 189.72 142.33 194.75 144.21 189.72 151.1 171.22 150.03 171.22"/><path class="cls-3" d="M134.66,168.42l1,2.8L142.33,189,149,171.22l1-2.8Zm7.67,13.44-4-10.65-.11-.3h8.15l-.11.3Z"/><path class="cls-3" d="M143.95,90l1.29-.22.55-.11,1.1-.22.64-.15,1-.24.7-.19.94-.25.74-.22A55.2,55.2,0,0,0,161.41,84a56.14,56.14,0,0,1-6.06-2.39L143.78,90Zm-15.12,10.76a31.78,31.78,0,0,0,2.54-2.54l-.89.35-.16.06-.88.31-.29.1-.87.27-.21.06-1.08.3-.26.07-.85.21-.35.08-.9.18-.23,0-.72.13-9.69,4a76.27,76.27,0,0,1-2.8,7.1l.19-.08.77-.33.77-.34a67.05,67.05,0,0,0,13.57-8l.2-.15.69-.55.22-.18.51-.42.13-.11.61-.54Zm23.53-8.49-.13,0q-1.25.37-2.5.69l-.32.08-1,.24-.28.06-1.25.27-.22,0-1,.2-.35.06-1.09.18-.17,0-1.26.17-.32,0-1,.11h-.13c1,1,2,2,3.1,3.07a18.26,18.26,0,0,0,3.88,1.41,43.93,43.93,0,0,0,10.31,1.26q1.91,0,3.72-.17a35.07,35.07,0,0,0,4.21-.66,36,36,0,0,0-3.88-2.7A42.55,42.55,0,0,0,152.36,92.22Zm-15.29,5.16-.17.29-.25.39-.28.42-.21.29-.21.29-.21.29-.22.29-.24.3-.22.27-.37.43-.3.34-.3.33-.27.28-.28.29-.29.3-.27.26-.32.32-.17.16q-1.19,1.13-2.56,2.26l-.15.12a36.63,36.63,0,0,0-1,8.39,33.46,33.46,0,0,0,.23,4,31.26,31.26,0,0,0,.69,3.8,31.31,31.31,0,0,0,2.25-2.94,35.38,35.38,0,0,0,4.82-10.76c.09-.33.17-.63.23-.9a24.67,24.67,0,0,0,.69-5.62,15.3,15.3,0,0,0-.49-4.08ZM79.58,118.69q1.6,0,3.3-.11a83.77,83.77,0,0,0,22.64-5,75.28,75.28,0,0,0,3.31-7.21l-30,12.27ZM180.07,57.59a54.54,54.54,0,0,0-10.59,3.24,51.77,51.77,0,0,0-.89,6.15l11.82-8.54C180.29,58.15,180.18,57.87,180.07,57.59Zm1.73,4.91L159.21,78.82a49.57,49.57,0,0,0,7,2.29c.52-.35,1-.71,1.54-1.08a55.53,55.53,0,0,0,14.59-15.65C182.16,63.75,182,63.12,181.79,62.49ZM148.13,23c-1.69-.83-3.41-1.58-5.18-2.26-1.06,2.51-2.07,5.08-3,7.74a76.65,76.65,0,0,0,4.82,9.77Zm8,28.28.19-.92a134.68,134.68,0,0,0,2.5-20.77A65.24,65.24,0,0,0,151.9,25l-7.54,34.24A95.16,95.16,0,0,0,156.1,51.25ZM58,73.73a99.94,99.94,0,0,0,12.48,7.9c2,1.08,4.11,2.15,6.3,3.2a76.29,76.29,0,0,0,8.54-4ZM81.82,87.14a185.63,185.63,0,0,0,21,7.61l.24.07a47.91,47.91,0,0,0,13.43,2h.19l1.23,0,.53,0,.9-.05.55,0,.93-.09.46,0,1.32-.18.32-.05,1-.18.45-.09.87-.19.43-.1,1-.27.24-.07,1.2-.38.07,0,0,0-.2-.06h0l-1-.33-.14,0-.23-.08-.75-.27-.24-.09-.34-.13-.62-.24-.26-.1-.3-.13-.71-.3-.15-.06-.44-.2-.63-.29-.15-.07-.53-.26-.62-.31-.08,0-.58-.3,0,0-.56-.3-.05,0-.57-.31-.06,0-.72-.42-.44-.26-.15-.09-.28-.16-.39-.25-.4-.25-.23-.14-.59-.38,0,0-.35-.23L115,88.6l-.16-.1L91,82.3A84.92,84.92,0,0,1,81.82,87.14ZM69.49,67A67,67,0,0,0,57,69.24l16.54,4.29Q71.59,70.12,69.49,67ZM107,82.23l-.19-.18-.25-.23-.09-.09h0l0,0-.1-.1-.7-.68-.33-.32-.12-.12-.48-.49-.53-.54-.08-.08-.82-.88-.2-.21-.05-.06-.86-1-.12-.14,0,0,0,0,0,0,0,0-.79-.93-.23-.27-.08-.1L100,74.59l-.15-.19-.1-.13c-.42-.53-.84-1.07-1.25-1.62h0q-.83-1.11-1.64-2.22L96,69.26l-.66-.91A107.18,107.18,0,0,0,77,66.7H75.47l-1.24,0C75.9,69.34,77.5,72.08,79,75Zm-16.12,23a91.18,91.18,0,0,0-9.58,6.68q-1.57,1.26-3,2.52l17.27-7.07Q93.27,106.23,90.92,105.24Zm19.7-4.68-.16,0-.72-.09-.15,0-.73-.11-.14,0-.75-.12-.12,0-.77-.14-.1,0-.8-.16h-.06q-1.74-.36-3.49-.85c-2.54,1.19-5,2.43-7.3,3.71q2.68,1.21,5.37,2.61l11.22-4.59-.43,0-.16,0ZM164.92,63a56.74,56.74,0,0,0-6.55,4.1q-2.1,1.53-4,3.2a84.13,84.13,0,0,1-4.12,8.21l0,.06-.69,1.17-.1.16L148.78,81l-.13.21-.24.39,5.52-4h0l10.38-7.51A53.82,53.82,0,0,1,164.92,63ZM138.07,34.32q-1.52,5.14-2.67,10.55-.16.75-.31,1.51a92.58,92.58,0,0,0-1.55,11.27,67.65,67.65,0,0,1,4.76,10l1.08-4.9h0l4.15-18.85A77,77,0,0,1,138.07,34.32Zm3.54,48.2c0,.51.06,1,.07,1.52.5-.66,1-1.32,1.47-2l0-.05q.85-1.21,1.66-2.48h0a78.55,78.55,0,0,0,5.91-11.23l.18-.42h0a88.28,88.28,0,0,0,3.61-10.27,105.16,105.16,0,0,1-11.37,7L140.69,75.9c0,.05,0,.11,0,.17v0q.33,1.61.55,3.18v.07q.21,1.58.31,3.11S141.61,82.51,141.61,82.52Z"/><path class="cls-1" d="M119.38,7.11a74.45,74.45,0,1,0,74.45,74.45A74.54,74.54,0,0,0,119.38,7.11Zm0,143.9a69.45,69.45,0,1,1,69.45-69.45A69.45,69.45,0,0,1,119.38,151ZM84.26,41.71a76.1,76.1,0,0,0,11,2.21c-1.6-2.19-3.16-4.35-4.67-6.45-2.59-3.6-5-7-7.3-10.25-1.4.93-2.76,1.93-4.08,3,.19.48.38,1,.57,1.45Q81.79,36.66,84.26,41.71ZM70.49,62.82c1.61-.11,3.25-.19,4.91-.22H77a108.83,108.83,0,0,1,15.12,1.09A174,174,0,0,1,75.94,33.18L75.85,33A65.21,65.21,0,0,0,56.19,65.23a72,72,0,0,1,14.08-2.39Zm8.27,45.89a96.72,96.72,0,0,1,10.82-7.47l.2-.12q3.38-2,7.1-3.92a181.47,181.47,0,0,1-21.1-8.29l0,0q-3.8-1.79-7.26-3.66a100.66,100.66,0,0,1-14.11-9.09c-.15,1.78-.24,3.58-.24,5.39a64.94,64.94,0,0,0,13.23,39.38L69,118.61A52.22,52.22,0,0,1,78.76,108.72Zm84-75.92a138.91,138.91,0,0,1-2.41,18.34c-.1.53-.22,1.05-.32,1.57l0,.08h0a97,97,0,0,1-2.78,10.11,59.53,59.53,0,0,1,21.21-9.18A65.46,65.46,0,0,0,162.73,32.79Zm-49.55-.57a174.94,174.94,0,0,1,15.36,17.86q.74,1,1.44,2,.42-3.22,1.07-6.49c.11-.53.21-1.05.33-1.56a139.76,139.76,0,0,1,4.43-16.13v0c1-2.92,2.1-5.75,3.26-8.52a65.38,65.38,0,0,0-40,.2,161.87,161.87,0,0,1,13.8,12.4A2.13,2.13,0,0,1,113.17,32.22Zm-1,27.52c.06-1.42.09-2.82.09-4.2a81.36,81.36,0,0,0-2.52-20.93A156.66,156.66,0,0,0,94.58,21.19a64.92,64.92,0,0,0-7.82,3.86c2.22,3.15,4.61,6.5,7.13,10C99.49,42.86,105.75,51.36,112.18,59.74Zm-1.25,20.48.54.48.59.51.54.45.21.18.37.3.53.43.25.2.37.29.52.4.18.14.47.35.54.39.13.1.5.35.63.44.51.34h0l.69.45.46.29.11.07.6.36.19.11.38.22.62.36.52.29L122,88l.53.28.6.3.23.11.3.15.62.29.12.06.43.19.66.28.46.19.4.16.15.06.52.2.46.17.12,0,.48.17.51.17L129,91l.11,0,.55.16h0l.3.08.17,0,.55.14.3.07.21,0,.5.11.34.07.2,0,1,.18c-3.1-3.43-6.29-7.14-9.53-11a83.15,83.15,0,0,1-13.71-1.49l.29.27Zm72.65-10.29A60.36,60.36,0,0,1,158.47,90a45.08,45.08,0,0,1,6.29,3.13,37.58,37.58,0,0,1,7.36,5.73l2.28,2.31-3.06,1.07a36.77,36.77,0,0,1-8.64,1.85q-2,.19-4.12.19a47.29,47.29,0,0,1-7.75-.66c2.25,2.09,4.28,4,5.74,5.27S158.9,111,158.9,111l1.53,1.37-2.74,3.07-1.53-1.37s-3.58-3.2-8-7.34c-2-1.83-4.09-3.84-6.17-5.85l-.18-.09c0,.16,0,.31,0,.47a28.68,28.68,0,0,1-.8,6.57c-.09.37-.18.7-.26,1a39.36,39.36,0,0,1-5.39,12,33.46,33.46,0,0,1-5.2,6.06l-2.24,2-1.07-2.82a33.68,33.68,0,0,1-1.91-7.94,37.55,37.55,0,0,1-.26-4.46,39.85,39.85,0,0,1,.31-4.92,76.16,76.16,0,0,1-10.39,5.63l-.8.36-.8.34c-10.56,4.5-20.94,7-29.84,7.58q-1.82.11-3.55.11a40.51,40.51,0,0,1-9.37-1l-2.66-.63a65.22,65.22,0,0,0,116-51.24ZM137.22,89.8a30.12,30.12,0,0,0,.36-4.75,44,44,0,0,0-2.2-13.18l-.06-.19L135.1,71l-.08-.25-.23-.65-.07-.19c-.14-.41-.3-.81-.45-1.22l-.12-.32-.21-.54-.16-.41-.22-.53-.18-.42-.23-.53-.18-.41-.48-1-.16-.33-.29-.6-.16-.32-.32-.63-.12-.23q-.83-1.61-1.78-3.22l-.32-.55h0a71.37,71.37,0,0,0-4.1-6.08q-4.84-6.44-10.07-12.21a93.41,93.41,0,0,1,1.19,15.2c0,3-.13,6-.39,9.13,7.18,9.2,14.46,18.06,21.18,25.43C137.18,90,137.2,89.9,137.22,89.8ZM112.16,66.45c-4.67-6-9.29-12.13-13.68-18.08a77.34,77.34,0,0,1-11.75-1.79A177.79,177.79,0,0,0,98.18,65.25l0,0q1.72,2.46,3.54,4.89l.43.56.54.7.32.4.67.83.35.43.08.09.58.68h0a71.71,71.71,0,0,0,15.53,2.76c-2.63-3.24-5.28-6.58-7.91-10A2.19,2.19,0,0,1,112.16,66.45Z"/><path class="cls-2" d="M119.38,12.11a69.45,69.45,0,1,0,69.45,69.45A69.45,69.45,0,0,0,119.38,12.11Zm-10.55,94.3a75.28,75.28,0,0,1-3.31,7.21,83.77,83.77,0,0,1-22.64,5q-1.7.11-3.3.11h-.72Zm-30.45,8q1.39-1.25,3-2.52a91.18,91.18,0,0,1,9.58-6.68q2.35,1,4.73,2.12Zm22.32-9.14q-2.69-1.4-5.37-2.61c2.32-1.28,4.76-2.52,7.3-3.71q1.75.49,3.49.85h.06l.8.16.1,0,.77.14.12,0,.75.12.14,0,.73.11.15,0,.72.09.16,0,.71.08.16,0,.43,0ZM85.29,80.83a76.29,76.29,0,0,1-8.54,4c-2.19-1-4.3-2.11-6.3-3.2A99.94,99.94,0,0,1,58,73.73ZM57,69.24A67,67,0,0,1,69.49,67q2.09,3.09,4.06,6.51Zm72.66-10.06q.95,1.61,1.78,3.22l.12.23.32.63.16.32.29.6.16.33.48,1,.18.41.23.53.18.42.22.53.16.41.21.54.12.32c.15.41.31.82.45,1.22l.07.19.23.65.08.25.22.66.06.19A44,44,0,0,1,137.58,85a30.12,30.12,0,0,1-.36,4.75c0,.1,0,.2-.05.3-6.72-7.37-14-16.23-21.18-25.43.26-3.11.39-6.16.39-9.13a93.41,93.41,0,0,0-1.19-15.2q5.22,5.77,10.07,12.21a71.37,71.37,0,0,1,4.1,6.08h0ZM133.3,92l-1-.18-.2,0-.34-.07-.5-.11-.21,0-.3-.07-.55-.14-.17,0-.3-.08h0l-.55-.16L129,91l-.42-.13-.51-.17-.48-.17-.12,0-.46-.17-.52-.2-.15-.06-.4-.16-.46-.19-.66-.28-.43-.19-.12-.06-.62-.29-.3-.15-.23-.11-.6-.3L122,88l-.61-.32-.52-.29-.62-.36-.38-.22-.19-.11-.6-.36-.11-.07-.46-.29-.69-.45h0l-.51-.34-.63-.44-.5-.35-.13-.1-.54-.39-.47-.35-.18-.14-.52-.4-.37-.29-.25-.2-.53-.43-.37-.3-.21-.18-.54-.45-.59-.51-.54-.48-.57-.52-.29-.27a83.15,83.15,0,0,0,13.71,1.49C127,84.82,130.21,88.53,133.3,92Zm-13-15.32a71.71,71.71,0,0,1-15.53-2.76h0l-.58-.68-.08-.09-.35-.43-.67-.83-.32-.4-.54-.7-.43-.56q-1.82-2.43-3.54-4.89l0,0A177.79,177.79,0,0,1,86.74,46.58a77.34,77.34,0,0,0,11.75,1.79c4.39,6,9,12.08,13.68,18.08a2.19,2.19,0,0,0,.18.23C115,70.06,117.62,73.4,120.26,76.64ZM96,69.26l.82,1.15q.81,1.12,1.64,2.22h0c.41.55.83,1.09,1.25,1.62l.1.13.15.19.87,1.07.08.1.23.27L102,77l0,0,0,0,0,0,0,0,.12.14.86,1,.05.06.2.21.82.88.08.08.53.54.48.49.12.12.33.32.7.68.1.1,0,0h0l.09.09.25.23.19.18L79,75c-1.51-2.88-3.11-5.62-4.78-8.21l1.24,0H77a107.18,107.18,0,0,1,18.3,1.64Zm-5,13,23.88,6.2.16.1.22.15.35.23,0,0,.59.38.23.14.4.25.39.25.28.16.15.09.44.26.72.42.06,0,.57.31.05,0,.56.3,0,0,.58.3.08,0,.62.31.53.26.15.07.63.29.44.2.15.06.71.3.3.13.26.1.62.24.34.13.24.09.75.27.23.08.14,0,1,.33h0l.2.06,0,0-.07,0-1.2.38-.24.07-1,.27-.43.1-.87.19-.45.09-1,.18-.32.05-1.32.18-.46,0-.93.09-.55,0-.9.05-.53,0-1.23,0h-.19a47.91,47.91,0,0,1-13.43-2l-.24-.07a185.63,185.63,0,0,1-21-7.61A84.92,84.92,0,0,0,91,82.3Zm23,22,9.69-4,.72-.13.23,0,.9-.18.35-.08.85-.21.26-.07,1.08-.3.21-.06.87-.27.29-.1.88-.31.16-.06.89-.35a31.78,31.78,0,0,1-2.54,2.54h0l-.61.54-.12.11-.51.42-.22.18-.69.55-.2.15a67.05,67.05,0,0,1-13.57,8l-.77.34-.77.33-.19.08A76.27,76.27,0,0,0,114,104.31Zm15.79,1,.15-.12q1.37-1.12,2.56-2.26l.17-.16.32-.32.27-.26.29-.3.28-.29.27-.28.3-.33.3-.34.37-.43.22-.27.24-.3.22-.29.21-.29.21-.29.21-.29.28-.42.25-.39.17-.29.13-.21a15.3,15.3,0,0,1,.49,4.08,24.67,24.67,0,0,1-.69,5.62c-.07.28-.15.57-.23.9a35.38,35.38,0,0,1-4.82,10.76,31.31,31.31,0,0,1-2.25,2.94,31.26,31.26,0,0,1-.69-3.8,33.46,33.46,0,0,1-.23-4A36.63,36.63,0,0,1,129.76,105.31Zm3.77-47.67a92.58,92.58,0,0,1,1.55-11.27q.15-.76.31-1.51,1.15-5.41,2.67-10.55a77,77,0,0,0,5.45,9.62l-4.15,18.85h0l-1.08,4.9A67.65,67.65,0,0,0,133.53,57.65Zm9.65,6.94a105.16,105.16,0,0,0,11.37-7,88.28,88.28,0,0,1-3.61,10.27h0l-.18.42a78.55,78.55,0,0,1-5.91,11.23h0Q144,80.77,143.19,82l0,.05c-.48.69-1,1.35-1.47,2,0-.5,0-1-.07-1.52,0,0,0,0,0,0q-.1-1.54-.31-3.11v-.07q-.22-1.58-.55-3.18v0c0-.06,0-.11,0-.17Zm15.19,2.52a56.74,56.74,0,0,1,6.55-4.1,53.82,53.82,0,0,0-.6,7.06l-10.38,7.51h0l-5.52,4,.24-.39.13-.21.64-1.06.1-.16.69-1.17,0-.06a84.13,84.13,0,0,0,4.12-8.21Q156.26,68.63,158.37,67.1ZM141.43,94.43l1-.11.32,0,1.26-.17.17,0,1.09-.18.35-.06,1-.2.22,0,1.25-.27.28-.06,1-.24.32-.08q1.25-.32,2.5-.69l.13,0a42.55,42.55,0,0,1,10.28,4.42,36,36,0,0,1,3.88,2.7,35.07,35.07,0,0,1-4.21.66q-1.82.17-3.72.17a43.93,43.93,0,0,1-10.31-1.26,18.26,18.26,0,0,1-3.88-1.41c-1.07-1-2.11-2.07-3.1-3.07Zm9.5-6.07-.74.22-.94.25-.7.19-1,.24-.64.15-1.1.22-.55.11-1.29.22-.16,0,11.56-8.36A56.14,56.14,0,0,0,161.41,84,55.2,55.2,0,0,1,150.92,88.36Zm8.29-9.54,22.58-16.33c.19.62.37,1.26.54,1.89A55.53,55.53,0,0,1,167.74,80c-.51.37-1,.73-1.54,1.08A49.57,49.57,0,0,1,159.21,78.82ZM180.4,58.43,168.58,67a51.77,51.77,0,0,1,.89-6.15,54.54,54.54,0,0,1,10.59-3.24C180.18,57.87,180.29,58.15,180.4,58.43Zm-2-4.7a59.53,59.53,0,0,0-21.21,9.18A97,97,0,0,0,160,52.8h0l0-.08c.11-.52.22-1,.32-1.57a138.91,138.91,0,0,0,2.41-18.34A65.46,65.46,0,0,1,178.41,53.73Zm-22.11-3.4-.19.92a95.16,95.16,0,0,1-11.74,8L151.9,25a65.24,65.24,0,0,1,6.9,4.57A134.68,134.68,0,0,1,156.29,50.33ZM144.78,38.22A76.65,76.65,0,0,1,140,28.44c.93-2.65,1.93-5.22,3-7.74,1.76.68,3.49,1.43,5.18,2.26ZM119.38,16.3a65.23,65.23,0,0,1,19.7,3c-1.17,2.77-2.27,5.6-3.26,8.52v0A139.76,139.76,0,0,0,131.37,44c-.11.51-.22,1-.33,1.56q-.65,3.27-1.07,6.49-.7-1-1.44-2a174.94,174.94,0,0,0-15.36-17.86,2.13,2.13,0,0,0-.29-.29,161.87,161.87,0,0,0-13.8-12.4A65.15,65.15,0,0,1,119.38,16.3ZM94.58,21.19a156.66,156.66,0,0,1,15.17,13.42,81.36,81.36,0,0,1,2.52,20.93c0,1.38,0,2.79-.09,4.2-6.43-8.38-12.69-16.88-18.29-24.68-2.53-3.51-4.91-6.87-7.13-10A64.92,64.92,0,0,1,94.58,21.19Zm-11.32,6c2.27,3.22,4.71,6.65,7.3,10.25,1.51,2.1,3.08,4.26,4.67,6.45a76.1,76.1,0,0,1-11-2.21q-2.47-5-4.52-10.08c-.2-.48-.38-1-.57-1.45C80.49,29.14,81.85,28.15,83.25,27.21ZM75.85,33l.09.22A174,174,0,0,0,92.14,63.68,108.83,108.83,0,0,0,77,62.59H75.4c-1.67,0-3.3.1-4.91.22h-.22a72,72,0,0,0-14.08,2.39A65.21,65.21,0,0,1,75.85,33ZM54.37,76.15a100.66,100.66,0,0,0,14.11,9.09q3.46,1.87,7.26,3.66l0,0a181.47,181.47,0,0,0,21.1,8.29q-3.72,1.9-7.1,3.92l-.2.12a96.72,96.72,0,0,0-10.82,7.47A52.22,52.22,0,0,0,69,118.61l-1.66,2.31A64.94,64.94,0,0,1,54.13,81.54C54.13,79.73,54.23,77.93,54.37,76.15Zm65,70.64a65.13,65.13,0,0,1-51.82-25.62l2.66.63a40.51,40.51,0,0,0,9.37,1q1.73,0,3.55-.11c8.9-.55,19.28-3.08,29.84-7.58l.8-.34.8-.36A76.16,76.16,0,0,0,125,108.78a39.85,39.85,0,0,0-.31,4.92,37.55,37.55,0,0,0,.26,4.46,33.68,33.68,0,0,0,1.91,7.94l1.07,2.82,2.24-2a33.46,33.46,0,0,0,5.2-6.06,39.36,39.36,0,0,0,5.39-12c.08-.31.17-.64.26-1a28.68,28.68,0,0,0,.8-6.57c0-.16,0-.31,0-.47l.18.09c2.08,2,4.21,4,6.17,5.85,4.45,4.14,8,7.33,8,7.34l1.53,1.37,2.74-3.07L158.9,111s-.88-.79-2.32-2.09-3.49-3.18-5.74-5.27a47.29,47.29,0,0,0,7.75.66q2.1,0,4.12-.19a36.77,36.77,0,0,0,8.64-1.85l3.06-1.07-2.28-2.31a37.58,37.58,0,0,0-7.36-5.73A45.08,45.08,0,0,0,158.47,90a60.36,60.36,0,0,0,25.11-20.07,65.2,65.2,0,0,1-64.2,76.87Z"/></g></svg>