<?xml version="1.0" encoding="utf-8"?>
<!-- Generator: Adobe Illustrator 22.0.0, SVG Export Plug-In . SVG Version: 6.00 Build 0)  -->
<svg version="1.1" id="Icon_Set" xmlns="http://www.w3.org/2000/svg" xmlns:xlink="http://www.w3.org/1999/xlink" x="0px" y="0px"
	 viewBox="0 0 64 64" style="enable-background:new 0 0 64 64;" xml:space="preserve">
<style type="text/css">
	.st0{fill:#263238;}
	.st1{fill:#FFD740;}
	.st2{fill:#4FC3F7;}
	.st3{fill:#40C4FF;}
	.st4{fill:#FF5252;}
	.st5{fill:#FFFFFF;}
	.st6{fill:#212A41;}
	.st7{fill:#37474F;}
	.st8{fill:#4DB6AC;}
</style>
<g>
	<g>
		<path class="st0" d="M31.75,46c-0.276,0-0.5-0.224-0.5-0.5v-20c0-0.276,0.224-0.5,0.5-0.5s0.5,0.224,0.5,0.5v20
			C32.25,45.776,32.026,46,31.75,46z"/>
	</g>
	<g>
		<path class="st8" d="M41.743,15.507c0,0,0.261,4.732-2.497,7.49c-2.758,2.758-7.49,2.497-7.49,2.497s-0.261-4.732,2.497-7.49
			S41.743,15.507,41.743,15.507z"/>
		<path class="st0" d="M32.12,26.001c-0.222,0-0.36-0.007-0.391-0.009c-0.255-0.014-0.458-0.217-0.472-0.471
			c-0.012-0.203-0.241-4.988,2.642-7.871c2.882-2.882,7.672-2.653,7.871-2.642c0.255,0.014,0.458,0.217,0.472,0.471
			c0.012,0.203,0.241,4.988-2.642,7.871C37.159,25.792,33.351,26.001,32.12,26.001z M41.248,16.003
			c-1.224,0.021-4.567,0.28-6.642,2.354c-2.079,2.079-2.334,5.417-2.354,6.64c1.224-0.021,4.567-0.28,6.642-2.354
			C40.973,20.564,41.228,17.226,41.248,16.003z"/>
	</g>
	<g>
		<path class="st8" d="M21.757,15.507c0,0-0.261,4.732,2.497,7.49s7.49,2.497,7.49,2.497s0.261-4.732-2.497-7.49
			S21.757,15.507,21.757,15.507z"/>
		<path class="st0" d="M31.38,26.001c-1.23,0-5.038-0.209-7.48-2.651c-2.883-2.883-2.653-7.668-2.642-7.871
			c0.014-0.254,0.217-0.458,0.472-0.471c0.2-0.011,4.989-0.24,7.871,2.642c2.883,2.883,2.653,7.668,2.642,7.871
			c-0.014,0.254-0.217,0.458-0.472,0.471C31.74,25.994,31.602,26.001,31.38,26.001z M22.253,16.002
			c0.021,1.224,0.279,4.567,2.354,6.641c2.079,2.079,5.417,2.334,6.641,2.355c-0.021-1.224-0.279-4.567-2.354-6.641
			C26.814,16.278,23.477,16.022,22.253,16.002z"/>
	</g>
	<g>
		<path class="st8" d="M41.743,27.507c0,0,0.261,4.732-2.497,7.49c-2.758,2.758-7.49,2.497-7.49,2.497s-0.261-4.732,2.497-7.49
			S41.743,27.507,41.743,27.507z"/>
		<path class="st0" d="M32.12,38.001c-0.222,0-0.36-0.007-0.391-0.009c-0.255-0.014-0.458-0.217-0.472-0.471
			c-0.012-0.203-0.241-4.988,2.642-7.871c2.882-2.881,7.672-2.652,7.871-2.642c0.255,0.014,0.458,0.217,0.472,0.471
			c0.012,0.203,0.241,4.988-2.642,7.871C37.159,37.792,33.351,38.001,32.12,38.001z M41.248,28.003
			c-1.224,0.021-4.567,0.28-6.642,2.354c-2.079,2.079-2.334,5.417-2.354,6.64c1.224-0.021,4.567-0.28,6.642-2.354
			C40.973,32.564,41.228,29.226,41.248,28.003z"/>
	</g>
	<g>
		<path class="st8" d="M21.757,27.507c0,0-0.261,4.732,2.497,7.49c2.758,2.758,7.49,2.497,7.49,2.497s0.261-4.732-2.497-7.49
			S21.757,27.507,21.757,27.507z"/>
		<path class="st0" d="M31.38,38.001c-1.23,0-5.038-0.209-7.48-2.651c-2.883-2.883-2.653-7.668-2.642-7.871
			c0.014-0.254,0.217-0.458,0.472-0.471c0.2-0.01,4.989-0.239,7.871,2.642c2.883,2.883,2.653,7.668,2.642,7.871
			c-0.014,0.254-0.217,0.458-0.472,0.471C31.74,37.994,31.602,38.001,31.38,38.001z M22.253,28.002
			c0.021,1.224,0.279,4.567,2.354,6.641c2.079,2.079,5.417,2.334,6.641,2.355c-0.021-1.224-0.279-4.567-2.354-6.641
			C26.814,28.278,23.477,28.022,22.253,28.002z"/>
	</g>
	<g>
		<rect x="26.75" y="45.5" class="st1" width="10" height="10"/>
		<path class="st0" d="M36.75,56h-10c-0.276,0-0.5-0.224-0.5-0.5v-10c0-0.276,0.224-0.5,0.5-0.5h10c0.276,0,0.5,0.224,0.5,0.5v10
			C37.25,55.776,37.026,56,36.75,56z M27.25,55h9v-9h-9V55z"/>
	</g>
	<g>
		<path class="st0" d="M33.724,52.926h-4c-0.276,0-0.5-0.224-0.5-0.5v-4c0-0.276,0.224-0.5,0.5-0.5h4c0.276,0,0.5,0.224,0.5,0.5v4
			C34.224,52.702,34,52.926,33.724,52.926z M30.224,51.926h3v-3h-3V51.926z"/>
	</g>
	<g>
		<path class="st0" d="M11.25,52.5c-0.276,0-0.5-0.224-0.5-0.5v-3.5c0-0.276,0.224-0.5,0.5-0.5h15.5c0.276,0,0.5,0.224,0.5,0.5
			s-0.224,0.5-0.5,0.5h-15v3C11.75,52.276,11.526,52.5,11.25,52.5z"/>
	</g>
	<g>
		<path class="st0" d="M52.75,53h-16c-0.276,0-0.5-0.224-0.5-0.5s0.224-0.5,0.5-0.5h15.5v-4.5c0-0.276,0.224-0.5,0.5-0.5
			s0.5,0.224,0.5,0.5v5C53.25,52.776,53.026,53,52.75,53z"/>
	</g>
	<g>
		<path class="st0" d="M54.25,46h-3c-0.276,0-0.5-0.224-0.5-0.5v-3c0-0.276,0.224-0.5,0.5-0.5h3c0.276,0,0.5,0.224,0.5,0.5v3
			C54.75,45.776,54.526,46,54.25,46z M51.75,45h2v-2h-2V45z"/>
	</g>
	<g>
		<path class="st0" d="M12.75,57.5h-3c-0.276,0-0.5-0.224-0.5-0.5v-3c0-0.276,0.224-0.5,0.5-0.5h3c0.276,0,0.5,0.224,0.5,0.5v3
			C13.25,57.276,13.026,57.5,12.75,57.5z M10.25,56.5h2v-2h-2V56.5z"/>
	</g>
	<g>
		<path class="st0" d="M54,15h-4c-0.276,0-0.5-0.224-0.5-0.5S49.724,14,50,14h4c0.276,0,0.5,0.224,0.5,0.5S54.276,15,54,15z"/>
	</g>
	<g>
		<path class="st0" d="M48.5,9.5h-4C44.224,9.5,44,9.276,44,9s0.224-0.5,0.5-0.5h4C48.776,8.5,49,8.724,49,9S48.776,9.5,48.5,9.5z"
			/>
	</g>
	<g>
		<path class="st0" d="M46.5,11.5c-0.276,0-0.5-0.224-0.5-0.5V7c0-0.276,0.224-0.5,0.5-0.5S47,6.724,47,7v4
			C47,11.276,46.776,11.5,46.5,11.5z"/>
	</g>
	<g>
		<path class="st0" d="M52,17c-0.276,0-0.5-0.224-0.5-0.5v-4c0-0.276,0.224-0.5,0.5-0.5s0.5,0.224,0.5,0.5v4
			C52.5,16.776,52.276,17,52,17z"/>
	</g>
	<g>
		<path class="st0" d="M5,34.75H4c-0.276,0-0.5-0.224-0.5-0.5s0.224-0.5,0.5-0.5h1c0.276,0,0.5,0.224,0.5,0.5S5.276,34.75,5,34.75z"
			/>
	</g>
	<g>
		<path class="st0" d="M18,34.75H7c-0.276,0-0.5-0.224-0.5-0.5s0.224-0.5,0.5-0.5h11c0.276,0,0.5,0.224,0.5,0.5
			S18.276,34.75,18,34.75z"/>
	</g>
	<g>
		<path class="st0" d="M60,34.75h-1c-0.276,0-0.5-0.224-0.5-0.5s0.224-0.5,0.5-0.5h1c0.276,0,0.5,0.224,0.5,0.5
			S60.276,34.75,60,34.75z"/>
	</g>
	<g>
		<path class="st0" d="M57,34.75H46.001c-0.276,0-0.5-0.224-0.5-0.5s0.224-0.5,0.5-0.5H57c0.276,0,0.5,0.224,0.5,0.5
			S57.276,34.75,57,34.75z"/>
	</g>
</g>
</svg>
