<?xml version="1.0" encoding="utf-8"?>
<!-- Generator: Adobe Illustrator 22.0.0, SVG Export Plug-In . SVG Version: 6.00 Build 0)  -->
<svg version="1.1" id="Layer_1" xmlns="http://www.w3.org/2000/svg" xmlns:xlink="http://www.w3.org/1999/xlink" x="0px" y="0px"
	 viewBox="0 0 64 64" style="enable-background:new 0 0 64 64;" xml:space="preserve">
<style type="text/css">
	.st0{fill:#263238;}
	.st1{fill:#4FC3F7;}
	.st2{fill:#4DB6AC;}
	.st3{fill:#FF5252;}
	.st4{fill:#FFFFFF;}
	.st5{fill:#FFD740;}
	.st6{fill:#40C4FF;}
</style>
<g>
	<g>
		<path class="st5" d="M27.313,57.75h-5c-1.381,0-2.5-1.119-2.5-2.5v-0.5h10v0.5C29.813,56.631,28.694,57.75,27.313,57.75z"/>
	</g>
	<g>
		<path class="st0" d="M47.089,42.25c-0.12,0-0.24-0.043-0.337-0.13c-0.204-0.186-0.219-0.502-0.033-0.707l3.184-3.5
			c0.095-0.104,0.229-0.164,0.37-0.164l0,0c0.141,0,0.275,0.06,0.37,0.164l3.183,3.5c0.186,0.205,0.171,0.521-0.034,0.707
			c-0.203,0.186-0.521,0.171-0.706-0.034l-2.812-3.093l-2.813,3.093C47.36,42.195,47.225,42.25,47.089,42.25z"/>
	</g>
	<g>
		<path class="st0" d="M50.272,44.25c-0.276,0-0.5-0.224-0.5-0.5v-5.5c0-0.276,0.224-0.5,0.5-0.5s0.5,0.224,0.5,0.5v5.5
			C50.772,44.026,50.549,44.25,50.272,44.25z"/>
	</g>
	<g>
		<path class="st2" d="M52.772,28.25c0,5.523-2.5,10-2.5,10s-2.5-4.477-2.5-10s2.5-10,2.5-10S52.772,22.727,52.772,28.25z"/>
		<path class="st0" d="M50.272,38.75c-0.182,0-0.349-0.098-0.437-0.256c-0.104-0.188-2.563-4.655-2.563-10.244
			s2.459-10.056,2.563-10.244c0.176-0.316,0.697-0.316,0.873,0c0.104,0.188,2.563,4.655,2.563,10.244s-2.459,10.056-2.563,10.244
			C50.621,38.652,50.454,38.75,50.272,38.75z M50.272,19.389c-0.701,1.554-2,4.958-2,8.861s1.299,7.308,2,8.861
			c0.701-1.554,2-4.958,2-8.861S50.974,20.942,50.272,19.389z"/>
	</g>
	<g>
		<path class="st2" d="M58.05,33.3c-3.515,3.515-7.778,4.95-7.778,4.95s1.435-4.263,4.95-7.778c3.515-3.515,7.778-4.95,7.778-4.95
			S61.565,29.786,58.05,33.3z"/>
		<path class="st0" d="M50.272,38.75c-0.131,0-0.258-0.051-0.354-0.146c-0.135-0.134-0.181-0.333-0.12-0.513
			c0.06-0.178,1.513-4.416,5.069-7.972s7.794-5.01,7.973-5.07c0.178-0.06,0.379-0.014,0.513,0.121
			c0.135,0.134,0.181,0.333,0.12,0.513c-0.06,0.178-1.513,4.416-5.069,7.972s-7.794,5.01-7.973,5.07
			C50.38,38.742,50.326,38.75,50.272,38.75z M62.096,26.426c-1.462,0.648-4.177,2.055-6.521,4.399s-3.75,5.059-4.398,6.521
			c1.462-0.648,4.177-2.055,6.521-4.399S61.447,27.888,62.096,26.426z"/>
	</g>
	<g>
		<path class="st2" d="M42.494,33.3c3.515,3.515,7.778,4.95,7.778,4.95s-1.435-4.263-4.95-7.778c-3.515-3.515-7.778-4.95-7.778-4.95
			S38.979,29.786,42.494,33.3z"/>
		<path class="st0" d="M50.272,38.75c-0.054,0-0.107-0.008-0.159-0.026c-0.179-0.061-4.416-1.514-7.973-5.07
			s-5.01-7.794-5.069-7.972c-0.061-0.18-0.015-0.379,0.12-0.513c0.136-0.134,0.337-0.182,0.513-0.12
			c0.179,0.06,4.415,1.513,7.972,5.07s5.011,7.793,5.07,7.972c0.061,0.18,0.015,0.379-0.12,0.513
			C50.53,38.699,50.403,38.75,50.272,38.75z M38.449,26.426c0.648,1.462,2.055,4.177,4.398,6.521s5.059,3.75,6.521,4.399
			c-0.648-1.462-2.056-4.177-4.399-6.521C42.625,28.481,39.911,27.075,38.449,26.426z"/>
	</g>
	<g>
		<path class="st2" d="M44.272,39.75c3.314,0,6-1.5,6-1.5s-2.686-1.5-6-1.5s-6,1.5-6,1.5S40.959,39.75,44.272,39.75z"/>
		<path class="st0" d="M44.272,40.25c-3.404,0-6.13-1.5-6.244-1.563c-0.158-0.088-0.256-0.255-0.256-0.437s0.098-0.348,0.256-0.437
			c0.114-0.064,2.84-1.563,6.244-1.563s6.13,1.5,6.244,1.563c0.158,0.088,0.256,0.255,0.256,0.437s-0.098,0.348-0.256,0.437
			C50.402,38.75,47.677,40.25,44.272,40.25z M39.462,38.25c1.035,0.423,2.813,1,4.811,1s3.775-0.577,4.811-1
			c-1.035-0.423-2.813-1-4.811-1S40.497,37.827,39.462,38.25z"/>
	</g>
	<g>
		<path class="st2" d="M56.272,39.75c3.314,0,6-1.5,6-1.5s-2.686-1.5-6-1.5c-3.314,0-6,1.5-6,1.5S52.959,39.75,56.272,39.75z"/>
		<path class="st0" d="M56.272,40.25c-3.404,0-6.13-1.5-6.244-1.563c-0.158-0.088-0.256-0.255-0.256-0.437s0.098-0.348,0.256-0.437
			c0.114-0.064,2.84-1.563,6.244-1.563s6.13,1.5,6.244,1.563c0.158,0.088,0.256,0.255,0.256,0.437s-0.098,0.348-0.256,0.437
			C62.402,38.75,59.677,40.25,56.272,40.25z M51.462,38.25c1.035,0.423,2.813,1,4.811,1s3.775-0.577,4.811-1
			c-1.035-0.423-2.813-1-4.811-1S52.497,37.827,51.462,38.25z"/>
	</g>
	<g>
		<path class="st5" d="M55.772,48.75h-11c-0.552,0-1-0.448-1-1v-1c0-0.552,0.448-1,1-1h11c0.552,0,1,0.448,1,1v1
			C56.772,48.302,56.325,48.75,55.772,48.75z"/>
		<path class="st0" d="M55.772,49.25h-11c-0.827,0-1.5-0.673-1.5-1.5v-1c0-0.827,0.673-1.5,1.5-1.5h11c0.827,0,1.5,0.673,1.5,1.5v1
			C57.272,48.577,56.6,49.25,55.772,49.25z M44.772,46.25c-0.275,0-0.5,0.224-0.5,0.5v1c0,0.276,0.225,0.5,0.5,0.5h11
			c0.275,0,0.5-0.224,0.5-0.5v-1c0-0.276-0.225-0.5-0.5-0.5H44.772z"/>
	</g>
	<g>
		<path class="st5" d="M53.425,57.75h-6.306c-0.489,0-0.906-0.353-0.986-0.836l-1.361-8.164h11l-1.361,8.164
			C54.331,57.397,53.914,57.75,53.425,57.75z"/>
		<path class="st0" d="M53.425,58.25h-6.306c-0.735,0-1.357-0.527-1.479-1.252l-1.36-8.166c-0.024-0.145,0.017-0.293,0.111-0.405
			c0.096-0.112,0.235-0.177,0.382-0.177h11c0.146,0,0.286,0.064,0.382,0.177c0.095,0.112,0.136,0.26,0.111,0.405l-1.36,8.165
			C54.783,57.723,54.16,58.25,53.425,58.25z M45.362,49.25l1.264,7.583c0.041,0.242,0.248,0.417,0.493,0.417h6.306
			c0.246,0,0.453-0.176,0.494-0.418l1.264-7.582H45.362z"/>
	</g>
	<g>
		<path class="st0" d="M14.671,17.502h-2c-0.276,0-0.5-0.224-0.5-0.5s0.224-0.5,0.5-0.5h2c0.276,0,0.5,0.224,0.5,0.5
			S14.948,17.502,14.671,17.502z"/>
	</g>
	<g>
		<path class="st0" d="M24.671,17.502h-8c-0.276,0-0.5-0.224-0.5-0.5s0.224-0.5,0.5-0.5h8c0.276,0,0.5,0.224,0.5,0.5
			S24.948,17.502,24.671,17.502z"/>
	</g>
	<g>
		<path class="st0" d="M5,10.75H1c-0.276,0-0.5-0.224-0.5-0.5s0.224-0.5,0.5-0.5h4c0.276,0,0.5,0.224,0.5,0.5S5.276,10.75,5,10.75z"
			/>
	</g>
	<g>
		<path class="st0" d="M10,6.25H6c-0.276,0-0.5-0.224-0.5-0.5s0.224-0.5,0.5-0.5h4c0.276,0,0.5,0.224,0.5,0.5S10.276,6.25,10,6.25z"
			/>
	</g>
	<g>
		<path class="st0" d="M8,8.25c-0.276,0-0.5-0.224-0.5-0.5v-4c0-0.276,0.224-0.5,0.5-0.5s0.5,0.224,0.5,0.5v4
			C8.5,8.026,8.276,8.25,8,8.25z"/>
	</g>
	<g>
		<path class="st0" d="M3,12.75c-0.276,0-0.5-0.224-0.5-0.5v-4c0-0.276,0.224-0.5,0.5-0.5s0.5,0.224,0.5,0.5v4
			C3.5,12.526,3.276,12.75,3,12.75z"/>
	</g>
	<g>
		<path class="st0" d="M6.657,55.75c-0.132,0-0.259-0.052-0.354-0.146c-0.104-0.104-0.158-0.25-0.145-0.397
			c0.009-0.103,0.241-2.527,1.912-4.199s4.096-1.903,4.199-1.912c0.146-0.015,0.293,0.04,0.397,0.145
			c0.104,0.104,0.158,0.25,0.145,0.397c-0.009,0.103-0.241,2.527-1.912,4.199l0,0c-1.672,1.671-4.096,1.903-4.199,1.912
			C6.686,55.75,6.671,55.75,6.657,55.75z M11.701,50.207c-0.751,0.172-1.997,0.582-2.923,1.507
			c-0.925,0.925-1.334,2.169-1.507,2.921c0.752-0.173,1.996-0.582,2.921-1.507C11.122,52.199,11.53,50.957,11.701,50.207z
			 M10.546,53.482h0.01H10.546z"/>
	</g>
	<g>
		<path class="st0" d="M6.657,55.75c-0.015,0-0.029,0-0.044-0.002c-0.103-0.009-2.527-0.241-4.199-1.912l0,0
			c-1.671-1.672-1.903-4.096-1.912-4.199c-0.013-0.147,0.04-0.293,0.145-0.397s0.251-0.16,0.397-0.145
			c0.103,0.009,2.527,0.241,4.198,1.912c1.672,1.671,1.904,4.096,1.913,4.199c0.013,0.147-0.04,0.293-0.145,0.397
			C6.916,55.698,6.789,55.75,6.657,55.75z M3.121,53.129c0.925,0.925,2.169,1.334,2.921,1.507C5.87,53.884,5.46,52.64,4.535,51.714
			c-0.93-0.93-2.171-1.337-2.921-1.508C1.786,50.958,2.195,52.203,3.121,53.129L3.121,53.129z"/>
	</g>
	<g>
		<path class="st0" d="M9.839,57.25c-0.071,0-0.144-0.015-0.213-0.048l-2.97-1.399l-2.97,1.399
			c-0.251,0.118-0.548,0.011-0.666-0.239c-0.118-0.25-0.011-0.548,0.239-0.666l3.183-1.5c0.136-0.063,0.291-0.063,0.427,0l3.183,1.5
			c0.25,0.118,0.357,0.416,0.239,0.666C10.207,57.144,10.027,57.25,9.839,57.25z"/>
	</g>
	<g>
		<path class="st0" d="M6.657,58.25c-0.276,0-0.5-0.224-0.5-0.5v-2.5c0-0.276,0.224-0.5,0.5-0.5s0.5,0.224,0.5,0.5v2.5
			C7.157,58.026,6.933,58.25,6.657,58.25z"/>
	</g>
	<g>
		<path class="st0" d="M6.657,55.75c-0.167,0-0.323-0.083-0.416-0.222c-0.064-0.097-1.584-2.398-1.584-5.278s1.52-5.182,1.584-5.278
			c0.186-0.277,0.646-0.277,0.831,0c0.064,0.097,1.584,2.398,1.584,5.278s-1.52,5.182-1.584,5.278
			C6.979,55.667,6.824,55.75,6.657,55.75z M6.658,46.274c-0.418,0.845-1.001,2.32-1.001,3.976c0,1.662,0.582,3.133,0.999,3.976
			c0.418-0.845,1.001-2.32,1.001-3.976C7.657,48.588,7.075,47.117,6.658,46.274z"/>
	</g>
	<g>
		<path class="st0" d="M27.997,53.75c-0.136,0-0.271-0.055-0.37-0.164l-2.813-3.093L22,53.586c-0.186,0.205-0.502,0.22-0.707,0.034
			s-0.219-0.502-0.034-0.707l3.183-3.5c0.19-0.208,0.55-0.208,0.74,0l3.183,3.5c0.186,0.204,0.17,0.521-0.034,0.707
			C28.237,53.707,28.117,53.75,27.997,53.75z"/>
	</g>
	<g>
		<path class="st0" d="M24.813,56.75c-0.276,0-0.5-0.224-0.5-0.5v-6.5c0-0.276,0.224-0.5,0.5-0.5s0.5,0.224,0.5,0.5v6.5
			C25.313,56.526,25.09,56.75,24.813,56.75z"/>
	</g>
	<g>
		<path class="st2" d="M26.813,41.75c0,4.418-2,8-2,8s-2-3.582-2-8s2-8,2-8S26.813,37.332,26.813,41.75z"/>
		<path class="st0" d="M24.813,50.25c-0.181,0-0.348-0.098-0.437-0.256c-0.084-0.151-2.063-3.747-2.063-8.244
			s1.979-8.093,2.063-8.244c0.177-0.316,0.696-0.316,0.873,0c0.084,0.151,2.063,3.747,2.063,8.244s-1.979,8.093-2.063,8.244
			C25.162,50.152,24.995,50.25,24.813,50.25z M24.813,34.908c-0.571,1.313-1.5,3.9-1.5,6.842s0.929,5.529,1.5,6.842
			c0.571-1.313,1.5-3.9,1.5-6.842S25.385,36.221,24.813,34.908z"/>
	</g>
	<g>
		<path class="st2" d="M28.813,51.25c-2.209,0-4-1.5-4-1.5s1.791-1.5,4-1.5s4,1.5,4,1.5S31.023,51.25,28.813,51.25z"/>
		<path class="st0" d="M28.813,51.75c-2.364,0-4.242-1.551-4.321-1.617c-0.114-0.095-0.179-0.235-0.179-0.383
			s0.065-0.288,0.179-0.383c0.079-0.066,1.957-1.617,4.321-1.617s4.242,1.551,4.321,1.617c0.113,0.095,0.179,0.235,0.179,0.383
			s-0.065,0.288-0.179,0.383C33.056,50.199,31.177,51.75,28.813,51.75z M25.683,49.75c0.653,0.41,1.823,1,3.131,1
			s2.478-0.59,3.131-1c-0.653-0.41-1.823-1-3.131-1S26.336,49.34,25.683,49.75z"/>
	</g>
	<g>
		<path class="st2" d="M20.813,51.25c2.209,0,4-1.5,4-1.5s-1.791-1.5-4-1.5s-4,1.5-4,1.5S18.604,51.25,20.813,51.25z"/>
		<path class="st0" d="M20.813,51.75c-2.364,0-4.242-1.551-4.321-1.617c-0.114-0.095-0.179-0.235-0.179-0.383
			s0.065-0.288,0.179-0.383c0.079-0.066,1.957-1.617,4.321-1.617s4.242,1.551,4.321,1.617c0.114,0.095,0.179,0.235,0.179,0.383
			s-0.065,0.288-0.179,0.383C25.056,50.199,23.177,51.75,20.813,51.75z M17.683,49.75c0.653,0.41,1.823,1,3.131,1
			s2.478-0.59,3.131-1c-0.653-0.41-1.823-1-3.131-1S18.336,49.34,17.683,49.75z"/>
	</g>
	<g>
		<path class="st2" d="M30.824,45.861c-2.734,2.734-6.01,3.889-6.01,3.889s1.155-3.277,3.889-6.01s6.01-3.889,6.01-3.889
			S33.558,43.127,30.824,45.861z"/>
		<path class="st0" d="M24.813,50.25c-0.13,0-0.258-0.051-0.354-0.146c-0.136-0.136-0.182-0.338-0.118-0.52
			c0.049-0.138,1.225-3.416,4.007-6.198c2.782-2.782,6.059-3.958,6.198-4.007c0.179-0.063,0.383-0.018,0.52,0.118
			c0.136,0.136,0.182,0.338,0.118,0.52c-0.049,0.138-1.226,3.416-4.007,6.198l0,0l0,0c-2.782,2.782-6.06,3.958-6.198,4.007
			C24.925,50.241,24.869,50.25,24.813,50.25z M33.752,40.812c-1.166,0.563-3.043,1.628-4.696,3.282
			c-1.653,1.653-2.719,3.53-3.282,4.696c1.166-0.563,3.043-1.628,4.696-3.282l0,0C32.124,43.854,33.189,41.977,33.752,40.812z"/>
	</g>
	<g>
		<path class="st2" d="M18.803,45.861c2.734,2.734,6.01,3.889,6.01,3.889s-1.155-3.277-3.889-6.01s-6.01-3.889-6.01-3.889
			S16.069,43.127,18.803,45.861z"/>
		<path class="st0" d="M24.813,50.25c-0.056,0-0.112-0.009-0.166-0.028c-0.138-0.049-3.416-1.225-6.198-4.007l0,0l0,0
			c-2.782-2.782-3.958-6.06-4.007-6.198c-0.064-0.181-0.018-0.383,0.118-0.52c0.136-0.137,0.338-0.183,0.52-0.118
			c0.138,0.049,3.416,1.225,6.198,4.007c2.782,2.782,3.958,6.06,4.007,6.198c0.064,0.181,0.018,0.383-0.118,0.52
			C25.072,50.199,24.944,50.25,24.813,50.25z M15.875,40.812c0.563,1.166,1.628,3.043,3.282,4.696l0,0
			c1.653,1.653,3.53,2.719,4.696,3.282c-0.563-1.166-1.628-3.043-3.282-4.696C18.918,42.44,17.041,41.375,15.875,40.812z"/>
	</g>
	<g>
		<path class="st0" d="M1.171,31.502c-0.128,0-0.256-0.049-0.354-0.146c-0.195-0.195-0.195-0.512,0-0.707l10-10
			c0.094-0.094,0.221-0.146,0.354-0.146h14.793L40.817,5.648c0.195-0.195,0.512-0.195,0.707,0s0.195,0.512,0,0.707l-15,15
			c-0.094,0.094-0.221,0.146-0.354,0.146H11.378l-9.854,9.854C1.427,31.453,1.299,31.502,1.171,31.502z"/>
	</g>
	<g>
		<path class="st0" d="M41.252,11.502c-0.276,0-0.5-0.224-0.5-0.5v-4.5h-4.5c-0.276,0-0.5-0.224-0.5-0.5s0.224-0.5,0.5-0.5h5
			c0.276,0,0.5,0.224,0.5,0.5v5C41.752,11.278,41.528,11.502,41.252,11.502z"/>
	</g>
</g>
</svg>
