<?xml version="1.0" encoding="utf-8"?>
<!-- Generator: Adobe Illustrator 22.0.0, SVG Export Plug-In . SVG Version: 6.00 Build 0)  -->
<svg version="1.1" id="Layer_1" xmlns="http://www.w3.org/2000/svg" xmlns:xlink="http://www.w3.org/1999/xlink" x="0px" y="0px"
	 viewBox="0 0 64 64" style="enable-background:new 0 0 64 64;" xml:space="preserve">
<style type="text/css">
	.st0{fill:#263238;}
	.st1{fill:#4FC3F7;}
	.st2{fill:#4DB6AC;}
	.st3{fill:#FF5252;}
	.st4{fill:#FFFFFF;}
	.st5{fill:#FFD740;}
	.st6{fill:#40C4FF;}
</style>
<g>
	<g>
		<path class="st0" d="M10.5,6h-4C6.224,6,6,5.776,6,5.5S6.224,5,6.5,5h4C10.776,5,11,5.224,11,5.5S10.776,6,10.5,6z"/>
	</g>
	<g>
		<path class="st0" d="M8.5,8C8.224,8,8,7.776,8,7.5v-4C8,3.224,8.224,3,8.5,3S9,3.224,9,3.5v4C9,7.776,8.776,8,8.5,8z"/>
	</g>
	<g>
		<path class="st0" d="M4.5,10.5h-4C0.224,10.5,0,10.276,0,10s0.224-0.5,0.5-0.5h4C4.776,9.5,5,9.724,5,10S4.776,10.5,4.5,10.5z"/>
	</g>
	<g>
		<path class="st0" d="M2.5,12.5C2.224,12.5,2,12.276,2,12V8c0-0.276,0.224-0.5,0.5-0.5S3,7.724,3,8v4C3,12.276,2.776,12.5,2.5,12.5
			z"/>
	</g>
	<g>
		<path class="st0" d="M57.5,18.5h-51C6.224,18.5,6,18.276,6,18v-5.5c0-1.654,1.346-3,3-3h46c1.654,0,3,1.346,3,3V18
			C58,18.276,57.776,18.5,57.5,18.5z M7,17.5h50v-5c0-1.103-0.897-2-2-2H9c-1.103,0-2,0.897-2,2V17.5z"/>
	</g>
	<g>
		<path class="st0" d="M10,16c-1.103,0-2-0.897-2-2s0.897-2,2-2s2,0.897,2,2S11.103,16,10,16z M10,13c-0.551,0-1,0.448-1,1
			s0.449,1,1,1s1-0.448,1-1S10.551,13,10,13z"/>
	</g>
	<g>
		<path class="st0" d="M15,16c-1.103,0-2-0.897-2-2s0.897-2,2-2s2,0.897,2,2S16.103,16,15,16z M15,13c-0.551,0-1,0.448-1,1
			s0.449,1,1,1s1-0.448,1-1S15.551,13,15,13z"/>
	</g>
	<g>
		<path class="st0" d="M12.5,58.5h-2c-0.276,0-0.5-0.224-0.5-0.5s0.224-0.5,0.5-0.5h2c0.276,0,0.5,0.224,0.5,0.5
			S12.776,58.5,12.5,58.5z"/>
	</g>
	<g>
		<path class="st0" d="M34.5,58.5h-20c-0.276,0-0.5-0.224-0.5-0.5s0.224-0.5,0.5-0.5h20c0.276,0,0.5,0.224,0.5,0.5
			S34.776,58.5,34.5,58.5z"/>
	</g>
	<g>
		<path class="st0" d="M53.5,6.5h-2C51.224,6.5,51,6.276,51,6s0.224-0.5,0.5-0.5h2C53.776,5.5,54,5.724,54,6S53.776,6.5,53.5,6.5z"
			/>
	</g>
	<g>
		<path class="st0" d="M49.5,6.5h-20C29.224,6.5,29,6.276,29,6s0.224-0.5,0.5-0.5h20C49.776,5.5,50,5.724,50,6S49.776,6.5,49.5,6.5z
			"/>
	</g>
	<g>
		<polygon class="st6" points="52.186,49.186 52.186,57.672 54.661,55.197 59.964,60.5 63.5,56.964 58.197,51.661 60.672,49.186 		
			"/>
		<path class="st0" d="M59.964,61c-0.128,0-0.256-0.049-0.354-0.146l-4.95-4.95l-2.121,2.122c-0.144,0.144-0.358,0.186-0.545,0.108
			s-0.309-0.26-0.309-0.462v-8.485c0-0.276,0.224-0.5,0.5-0.5h8.485c0.202,0,0.385,0.122,0.462,0.309
			c0.078,0.187,0.035,0.402-0.108,0.545l-2.121,2.121l4.95,4.95C63.947,56.705,64,56.832,64,56.965s-0.053,0.26-0.146,0.354
			l-3.536,3.535C60.22,60.951,60.092,61,59.964,61z M54.661,54.696c0.133,0,0.26,0.053,0.354,0.146l4.95,4.95l2.829-2.828
			l-4.95-4.95c-0.195-0.195-0.195-0.512,0-0.707l1.621-1.621h-6.778v6.778l1.621-1.622C54.401,54.749,54.528,54.696,54.661,54.696z"
			/>
	</g>
	<g>
		<path class="st0" d="M50.187,54.5H9c-1.654,0-3-1.346-3-3V18c0-0.276,0.224-0.5,0.5-0.5h51c0.276,0,0.5,0.224,0.5,0.5v29.187
			c0,0.276-0.224,0.5-0.5,0.5s-0.5-0.224-0.5-0.5V18.5H7v33c0,1.103,0.897,2,2,2h41.187c0.276,0,0.5,0.224,0.5,0.5
			S50.463,54.5,50.187,54.5z"/>
	</g>
	<g>
		<rect x="34.5" y="38.498" class="st3" width="8" height="8"/>
		<path class="st0" d="M42.5,46.998h-8c-0.276,0-0.5-0.224-0.5-0.5v-8c0-0.276,0.224-0.5,0.5-0.5h8c0.276,0,0.5,0.224,0.5,0.5v8
			C43,46.774,42.776,46.998,42.5,46.998z M35,45.998h7v-7h-7V45.998z"/>
	</g>
	<g>
		<rect x="45.5" y="38.498" class="st5" width="8" height="8"/>
		<path class="st0" d="M53.5,46.998h-8c-0.276,0-0.5-0.224-0.5-0.5v-8c0-0.276,0.224-0.5,0.5-0.5h8c0.276,0,0.5,0.224,0.5,0.5v8
			C54,46.774,53.776,46.998,53.5,46.998z M46,45.998h7v-7h-7V45.998z"/>
	</g>
	<g>
		<path class="st0" d="M53.5,27.5h-19c-0.276,0-0.5-0.224-0.5-0.5v-3c0-0.276,0.224-0.5,0.5-0.5h19c0.276,0,0.5,0.224,0.5,0.5v3
			C54,27.276,53.776,27.5,53.5,27.5z M35,26.5h18v-2H35V26.5z"/>
	</g>
	<g>
		<path class="st0" d="M49.5,30.5h-15c-0.276,0-0.5-0.224-0.5-0.5s0.224-0.5,0.5-0.5h15c0.276,0,0.5,0.224,0.5,0.5
			S49.776,30.5,49.5,30.5z"/>
	</g>
	<g>
		<path class="st0" d="M42,33.5h-7.5c-0.276,0-0.5-0.224-0.5-0.5s0.224-0.5,0.5-0.5H42c0.276,0,0.5,0.224,0.5,0.5
			S42.276,33.5,42,33.5z"/>
	</g>
	<g>
		<path class="st0" d="M23.583,43.447c-0.136,0-0.271-0.055-0.37-0.164l-2.813-3.093l-2.813,3.093
			c-0.186,0.206-0.502,0.22-0.707,0.034c-0.204-0.186-0.219-0.502-0.034-0.706l3.183-3.5c0.19-0.209,0.55-0.209,0.74,0l3.183,3.5
			c0.186,0.204,0.17,0.521-0.034,0.706C23.823,43.404,23.703,43.447,23.583,43.447z"/>
	</g>
	<g>
		<path class="st0" d="M20.399,46.447c-0.276,0-0.5-0.224-0.5-0.5v-6.5c0-0.276,0.224-0.5,0.5-0.5s0.5,0.224,0.5,0.5v6.5
			C20.899,46.224,20.676,46.447,20.399,46.447z"/>
	</g>
	<g>
		<path class="st2" d="M22.399,31.448c0,4.418-2,8-2,8s-2-3.582-2-8s2-8,2-8S22.399,27.029,22.399,31.448z"/>
		<path class="st0" d="M20.399,39.947c-0.181,0-0.348-0.098-0.437-0.256c-0.084-0.151-2.063-3.747-2.063-8.244
			c0-4.496,1.979-8.093,2.063-8.244c0.177-0.316,0.696-0.316,0.873,0c0.084,0.151,2.063,3.748,2.063,8.244
			c0,4.497-1.979,8.093-2.063,8.244C20.748,39.85,20.581,39.947,20.399,39.947z M20.4,24.604c-0.571,1.312-1.5,3.9-1.5,6.844
			c0,2.942,0.929,5.529,1.5,6.843c0.571-1.313,1.5-3.9,1.5-6.843C21.899,28.498,20.971,25.914,20.4,24.604z"/>
	</g>
	<g>
		<path class="st2" d="M24.399,40.948c-2.209,0-4-1.5-4-1.5s1.791-1.5,4-1.5s4,1.5,4,1.5S26.609,40.948,24.399,40.948z"/>
		<path class="st0" d="M24.399,41.447c-2.364,0-4.242-1.551-4.321-1.616c-0.114-0.096-0.179-0.235-0.179-0.384
			s0.065-0.288,0.179-0.384c0.079-0.065,1.957-1.616,4.321-1.616s4.242,1.551,4.321,1.616c0.114,0.096,0.179,0.235,0.179,0.384
			s-0.065,0.288-0.179,0.384C28.642,39.896,26.763,41.447,24.399,41.447z M21.269,39.447c0.653,0.409,1.823,1,3.131,1
			s2.478-0.591,3.131-1c-0.653-0.409-1.823-1-3.131-1S21.922,39.038,21.269,39.447z"/>
	</g>
	<g>
		<path class="st2" d="M16.399,40.948c2.209,0,4-1.5,4-1.5s-1.791-1.5-4-1.5s-4,1.5-4,1.5S14.19,40.948,16.399,40.948z"/>
		<path class="st0" d="M16.399,41.447c-2.364,0-4.242-1.551-4.321-1.616c-0.114-0.096-0.179-0.235-0.179-0.384
			s0.065-0.288,0.179-0.384c0.079-0.065,1.957-1.616,4.321-1.616s4.242,1.551,4.321,1.616c0.114,0.096,0.179,0.235,0.179,0.384
			s-0.065,0.288-0.179,0.384C20.642,39.896,18.763,41.447,16.399,41.447z M13.269,39.447c0.653,0.409,1.823,1,3.131,1
			s2.478-0.591,3.131-1c-0.653-0.409-1.823-1-3.131-1S13.922,39.038,13.269,39.447z"/>
	</g>
	<g>
		<path class="st2" d="M26.41,35.559c-2.734,2.734-6.01,3.889-6.01,3.889s1.155-3.277,3.889-6.01s6.01-3.889,6.01-3.889
			S29.144,32.825,26.41,35.559z"/>
		<path class="st0" d="M20.399,39.947c-0.13,0-0.258-0.051-0.354-0.146c-0.136-0.136-0.182-0.338-0.118-0.52
			c0.049-0.139,1.225-3.416,4.007-6.197c2.782-2.782,6.06-3.959,6.197-4.008c0.182-0.062,0.384-0.019,0.52,0.118
			c0.136,0.136,0.182,0.338,0.118,0.52c-0.049,0.139-1.225,3.417-4.007,6.198l0,0l0,0c-2.782,2.781-6.06,3.958-6.198,4.007
			C20.511,39.938,20.455,39.947,20.399,39.947z M29.339,30.508c-1.165,0.563-3.043,1.629-4.697,3.283
			c-1.653,1.653-2.719,3.53-3.282,4.695c1.166-0.562,3.043-1.628,4.696-3.281l0,0C27.714,33.548,28.778,31.672,29.339,30.508z"/>
	</g>
	<g>
		<path class="st2" d="M14.389,35.559c2.734,2.734,6.01,3.889,6.01,3.889s-1.155-3.277-3.889-6.01s-6.01-3.889-6.01-3.889
			S11.655,32.825,14.389,35.559z"/>
		<path class="st0" d="M20.399,39.947c-0.056,0-0.112-0.01-0.166-0.028c-0.138-0.049-3.416-1.226-6.198-4.007l0,0l0,0
			c-2.782-2.781-3.958-6.06-4.007-6.198c-0.064-0.182-0.018-0.384,0.118-0.52c0.136-0.137,0.337-0.181,0.52-0.118
			c0.138,0.049,3.416,1.226,6.198,4.008c2.782,2.781,3.958,6.059,4.007,6.197c0.064,0.182,0.018,0.384-0.118,0.52
			C20.658,39.896,20.53,39.947,20.399,39.947z M11.461,30.509c0.563,1.166,1.628,3.043,3.282,4.696l0,0
			c1.653,1.653,3.53,2.719,4.696,3.281c-0.563-1.165-1.628-3.042-3.282-4.695S12.626,31.071,11.461,30.509z"/>
	</g>
</g>
</svg>
