<?xml version="1.0" encoding="utf-8"?>
<!-- Generator: Adobe Illustrator 22.0.0, SVG Export Plug-In . SVG Version: 6.00 Build 0)  -->
<svg version="1.1" id="Layer_1" xmlns="http://www.w3.org/2000/svg" xmlns:xlink="http://www.w3.org/1999/xlink" x="0px" y="0px"
	 viewBox="0 0 64 64" style="enable-background:new 0 0 64 64;" xml:space="preserve">
<style type="text/css">
	.st0{fill:#263238;}
	.st1{fill:#4FC3F7;}
	.st2{fill:#4DB6AC;}
	.st3{fill:#FF5252;}
	.st4{fill:#FFFFFF;}
	.st5{fill:#FFD740;}
	.st6{fill:#40C4FF;}
</style>
<g>
	<g>
		<rect x="17" y="11.5" class="st2" width="30" height="49"/>
	</g>
	<g>
		<path class="st0" d="M27,20.731c-0.276,0-0.5-0.224-0.5-0.5V11.5c0-0.276,0.224-0.5,0.5-0.5s0.5,0.224,0.5,0.5v8.731
			C27.5,20.508,27.277,20.731,27,20.731z"/>
	</g>
	<g>
		<path class="st0" d="M27,61c-0.276,0-0.5-0.224-0.5-0.5V34.079c0-0.276,0.224-0.5,0.5-0.5s0.5,0.224,0.5,0.5V60.5
			C27.5,60.776,27.277,61,27,61z"/>
	</g>
	<g>
		<path class="st0" d="M37,20.731c-0.276,0-0.5-0.224-0.5-0.5V11.5c0-0.276,0.224-0.5,0.5-0.5s0.5,0.224,0.5,0.5v8.731
			C37.5,20.508,37.276,20.731,37,20.731z"/>
	</g>
	<g>
		<path class="st0" d="M37,61c-0.276,0-0.5-0.224-0.5-0.5V34.079c0-0.276,0.224-0.5,0.5-0.5s0.5,0.224,0.5,0.5V60.5
			C37.5,60.776,37.276,61,37,61z"/>
	</g>
	<g>
		<path class="st0" d="M47,61c-0.276,0-0.5-0.224-0.5-0.5v-49c0-0.276,0.224-0.5,0.5-0.5s0.5,0.224,0.5,0.5v49
			C47.5,60.776,47.276,61,47,61z"/>
	</g>
	<g>
		<path class="st0" d="M17,61c-0.276,0-0.5-0.224-0.5-0.5v-49c0-0.276,0.224-0.5,0.5-0.5s0.5,0.224,0.5,0.5v49
			C17.5,60.776,17.277,61,17,61z"/>
	</g>
	<g>
		<path class="st0" d="M13.622,6h-4c-0.276,0-0.5-0.224-0.5-0.5S9.345,5,9.622,5h4c0.276,0,0.5,0.224,0.5,0.5S13.898,6,13.622,6z"/>
	</g>
	<g>
		<path class="st0" d="M11.622,8c-0.276,0-0.5-0.224-0.5-0.5v-4c0-0.276,0.224-0.5,0.5-0.5s0.5,0.224,0.5,0.5v4
			C12.122,7.776,11.898,8,11.622,8z"/>
	</g>
	<g>
		<path class="st0" d="M9.622,12h-4c-0.276,0-0.5-0.224-0.5-0.5s0.224-0.5,0.5-0.5h4c0.276,0,0.5,0.224,0.5,0.5S9.898,12,9.622,12z"
			/>
	</g>
	<g>
		<path class="st0" d="M7.622,14c-0.276,0-0.5-0.224-0.5-0.5v-4c0-0.276,0.224-0.5,0.5-0.5s0.5,0.224,0.5,0.5v4
			C8.122,13.776,7.898,14,7.622,14z"/>
	</g>
	<g>
		<path class="st0" d="M61,61H3c-0.276,0-0.5-0.224-0.5-0.5S2.724,60,3,60h58c0.276,0,0.5,0.224,0.5,0.5S61.276,61,61,61z"/>
	</g>
	<g>
		<polygon class="st3" points="50.796,25.5 53.486,28.189 42.675,39 22.649,39 5.704,56.971 7.888,59.029 23.944,42 43.917,42 
			55.607,30.311 58.296,33 58.296,25.5 		"/>
		<path class="st0" d="M7.888,59.528c-0.123,0-0.246-0.045-0.343-0.136l-2.184-2.058c-0.097-0.092-0.153-0.217-0.157-0.35
			s0.045-0.261,0.136-0.357l16.944-17.971c0.094-0.101,0.226-0.157,0.364-0.157h19.819l10.311-10.311l-2.336-2.336
			c-0.143-0.143-0.186-0.358-0.108-0.545S50.594,25,50.796,25h7.5c0.276,0,0.5,0.224,0.5,0.5V33c0,0.202-0.122,0.385-0.309,0.462
			c-0.185,0.077-0.401,0.036-0.545-0.108l-2.336-2.336L44.271,42.354c-0.094,0.094-0.221,0.146-0.354,0.146H24.16L8.252,59.371
			C8.154,59.476,8.021,59.528,7.888,59.528z M6.412,56.95l1.456,1.371L23.58,41.657c0.094-0.101,0.226-0.157,0.364-0.157H43.71
			l11.543-11.543c0.195-0.195,0.512-0.195,0.707,0l1.836,1.836V26h-5.793l1.836,1.836c0.195,0.195,0.195,0.512,0,0.707
			L43.028,39.354c-0.094,0.094-0.221,0.146-0.354,0.146h-19.81L6.412,56.95z"/>
	</g>
	<g>
		<path class="st0" d="M28.817,33.75c-0.12,0-0.241-0.043-0.336-0.13c-0.204-0.187-0.219-0.502-0.034-0.707l3.184-3.5
			C31.726,29.31,31.86,29.25,32,29.25l0,0c0.141,0,0.275,0.06,0.37,0.164l3.183,3.5c0.186,0.204,0.171,0.521-0.034,0.706
			c-0.204,0.187-0.52,0.173-0.706-0.034L32,30.493l-2.813,3.094C29.088,33.695,28.953,33.75,28.817,33.75z"/>
	</g>
	<g>
		<path class="st0" d="M32,36.75c-0.276,0-0.5-0.224-0.5-0.5v-6.5c0-0.276,0.224-0.5,0.5-0.5s0.5,0.224,0.5,0.5v6.5
			C32.5,36.526,32.277,36.75,32,36.75z"/>
	</g>
	<g>
		<path class="st4" d="M34,21.75c0,4.418-2,8-2,8s-2-3.582-2-8s2-8,2-8S34,17.332,34,21.75z"/>
		<path class="st0" d="M32,30.25c-0.181,0-0.348-0.098-0.437-0.256c-0.084-0.151-2.063-3.748-2.063-8.244s1.979-8.093,2.063-8.244
			c0.088-0.158,0.255-0.256,0.437-0.256l0,0c0.181,0,0.348,0.098,0.437,0.256c0.084,0.151,2.063,3.748,2.063,8.244
			s-1.979,8.093-2.063,8.244C32.349,30.152,32.182,30.25,32,30.25z M32,14.908c-0.571,1.312-1.5,3.899-1.5,6.842
			c0,2.949,0.928,5.533,1.5,6.843c0.571-1.312,1.5-3.899,1.5-6.843C33.5,18.808,32.572,16.221,32,14.908z"/>
	</g>
	<g>
		<path class="st4" d="M36,31.25c-2.209,0-4-1.5-4-1.5s1.791-1.5,4-1.5c2.209,0,4,1.5,4,1.5S38.209,31.25,36,31.25z"/>
		<path class="st0" d="M36,31.75c-2.363,0-4.242-1.551-4.321-1.617c-0.113-0.095-0.179-0.235-0.179-0.383s0.065-0.288,0.179-0.383
			c0.079-0.066,1.958-1.617,4.321-1.617s4.242,1.551,4.321,1.616c0.113,0.096,0.179,0.235,0.179,0.384s-0.065,0.288-0.179,0.384
			C40.242,30.199,38.363,31.75,36,31.75z M32.869,29.75c0.653,0.409,1.822,1,3.131,1s2.478-0.591,3.131-1
			c-0.653-0.409-1.822-1-3.131-1S33.522,29.341,32.869,29.75z"/>
	</g>
	<g>
		<path class="st4" d="M28,31.25c2.209,0,4-1.5,4-1.5s-1.791-1.5-4-1.5s-4,1.5-4,1.5S25.791,31.25,28,31.25z"/>
		<path class="st0" d="M28,31.75c-2.364,0-4.242-1.551-4.321-1.617c-0.113-0.095-0.179-0.235-0.179-0.383s0.065-0.288,0.179-0.383
			c0.079-0.066,1.957-1.617,4.321-1.617c2.364,0,4.242,1.551,4.321,1.616c0.114,0.096,0.179,0.235,0.179,0.384
			s-0.065,0.288-0.179,0.384C32.243,30.199,30.364,31.75,28,31.75z M24.868,29.749c0.653,0.41,1.823,1.001,3.132,1.001
			c1.308,0,2.478-0.591,3.131-1c-0.653-0.409-1.823-1-3.131-1C26.685,28.75,25.519,29.34,24.868,29.749z"/>
	</g>
	<g>
		<path class="st4" d="M38.011,25.861C35.277,28.595,32,29.75,32,29.75s1.155-3.277,3.889-6.01c2.734-2.734,6.01-3.889,6.01-3.889
			S40.744,23.127,38.011,25.861z"/>
		<path class="st0" d="M32,30.25c-0.13,0-0.258-0.051-0.354-0.146c-0.136-0.136-0.182-0.338-0.118-0.52
			c0.049-0.139,1.225-3.416,4.007-6.198c2.781-2.781,6.059-3.958,6.197-4.007c0.18-0.062,0.383-0.019,0.52,0.118
			c0.136,0.136,0.182,0.338,0.118,0.52c-0.049,0.139-1.226,3.416-4.007,6.198l0,0c-2.781,2.781-6.06,3.958-6.198,4.007
			C32.112,30.24,32.056,30.25,32,30.25z M40.94,20.811c-1.166,0.563-3.044,1.629-4.697,3.282s-2.719,3.531-3.282,4.696
			c1.166-0.562,3.043-1.628,4.696-3.281C39.314,23.85,40.378,21.975,40.94,20.811z M38.011,25.861h0.01H38.011z"/>
	</g>
	<g>
		<path class="st4" d="M25.99,25.861C28.724,28.595,32,29.75,32,29.75s-1.155-3.277-3.889-6.01s-6.01-3.889-6.01-3.889
			S23.256,23.127,25.99,25.861z"/>
		<path class="st0" d="M32,30.25c-0.056,0-0.112-0.01-0.166-0.028c-0.138-0.049-3.416-1.226-6.198-4.007l0,0
			c-2.782-2.782-3.958-6.06-4.007-6.198c-0.064-0.182-0.018-0.384,0.118-0.52c0.135-0.137,0.338-0.182,0.52-0.118
			c0.138,0.049,3.416,1.226,6.198,4.007c2.782,2.782,3.958,6.06,4.007,6.198c0.064,0.182,0.018,0.384-0.118,0.52
			C32.259,30.199,32.131,30.25,32,30.25z M26.343,25.508c1.653,1.653,3.531,2.719,4.696,3.281c-0.563-1.165-1.629-3.043-3.282-4.696
			c-1.653-1.653-3.531-2.719-4.696-3.281C23.625,21.977,24.69,23.854,26.343,25.508L26.343,25.508z"/>
	</g>
	<g>
		<path class="st0" d="M3,42.5H1c-0.276,0-0.5-0.224-0.5-0.5s0.224-0.5,0.5-0.5h2c0.276,0,0.5,0.224,0.5,0.5S3.277,42.5,3,42.5z"/>
	</g>
	<g>
		<path class="st0" d="M15.5,42.5H5c-0.276,0-0.5-0.224-0.5-0.5s0.224-0.5,0.5-0.5h10.5c0.276,0,0.5,0.224,0.5,0.5
			S15.777,42.5,15.5,42.5z"/>
	</g>
	<g>
		<path class="st0" d="M63,52h-2c-0.276,0-0.5-0.224-0.5-0.5S60.724,51,61,51h2c0.276,0,0.5,0.224,0.5,0.5S63.276,52,63,52z"/>
	</g>
	<g>
		<path class="st0" d="M59,52H48.5c-0.276,0-0.5-0.224-0.5-0.5s0.224-0.5,0.5-0.5H59c0.276,0,0.5,0.224,0.5,0.5S59.276,52,59,52z"/>
	</g>
</g>
</svg>
