<?xml version="1.0" encoding="utf-8"?>
<!-- Generator: Adobe Illustrator 21.1.0, SVG Export Plug-In . SVG Version: 6.00 Build 0)  -->
<svg version="1.1" id="Icon_Set" xmlns="http://www.w3.org/2000/svg" xmlns:xlink="http://www.w3.org/1999/xlink" x="0px" y="0px"
	 viewBox="0 0 64 64" style="enable-background:new 0 0 64 64;" xml:space="preserve">
<style type="text/css">
	.st0{fill:#263238;}
	.st1{fill:#40C4FF;}
	.st2{fill:#FFD740;}
	.st3{fill:#FF5252;}
	.st4{fill:#4DB6AC;}
	.st5{fill:#FFFFFF;}
	.st6{fill:#4FC3F7;}
</style>
<g id="Crowdfunding">
	<g>
		<path class="st0" d="M58,32.5H46c-0.276,0-0.5-0.224-0.5-0.5s0.224-0.5,0.5-0.5h12c0.276,0,0.5,0.224,0.5,0.5S58.276,32.5,58,32.5
			z"/>
	</g>
	<g>
		<path class="st0" d="M18,32.5H6c-0.276,0-0.5-0.224-0.5-0.5s0.224-0.5,0.5-0.5h12c0.276,0,0.5,0.224,0.5,0.5S18.276,32.5,18,32.5z
			"/>
	</g>
	<g>
		<path class="st0" d="M39,20.375c-0.085,0-0.171-0.021-0.25-0.067c-0.239-0.138-0.321-0.444-0.183-0.683l6-10.392
			c0.138-0.24,0.444-0.321,0.683-0.183c0.239,0.138,0.321,0.444,0.183,0.683l-6,10.392C39.34,20.286,39.172,20.375,39,20.375z"/>
	</g>
	<g>
		<path class="st0" d="M19,55.017c-0.085,0-0.171-0.021-0.25-0.067c-0.239-0.138-0.321-0.444-0.183-0.683l6-10.392
			c0.138-0.24,0.444-0.322,0.683-0.183c0.239,0.138,0.321,0.444,0.183,0.683l-6,10.392C19.34,54.927,19.172,55.017,19,55.017z"/>
	</g>
	<g>
		<path class="st0" d="M36,4.5h-5c-0.276,0-0.5-0.224-0.5-0.5s0.224-0.5,0.5-0.5h5c0.276,0,0.5,0.224,0.5,0.5S36.276,4.5,36,4.5z"/>
	</g>
	<g>
		<path class="st0" d="M29,4.5h-1c-0.276,0-0.5-0.224-0.5-0.5s0.224-0.5,0.5-0.5h1c0.276,0,0.5,0.224,0.5,0.5S29.276,4.5,29,4.5z"/>
	</g>
	<g>
		<path class="st0" d="M33,60.5h-5c-0.276,0-0.5-0.224-0.5-0.5s0.224-0.5,0.5-0.5h5c0.276,0,0.5,0.224,0.5,0.5S33.276,60.5,33,60.5z
			"/>
	</g>
	<g>
		<path class="st0" d="M36,60.5h-1c-0.276,0-0.5-0.224-0.5-0.5s0.224-0.5,0.5-0.5h1c0.276,0,0.5,0.224,0.5,0.5S36.276,60.5,36,60.5z
			"/>
	</g>
	<g>
		<circle class="st2" cx="32" cy="32" r="12"/>
		<path class="st0" d="M32,44.5c-6.893,0-12.5-5.607-12.5-12.5S25.107,19.5,32,19.5S44.5,25.107,44.5,32S38.893,44.5,32,44.5z
			 M32,20.5c-6.341,0-11.5,5.159-11.5,11.5S25.659,43.5,32,43.5S43.5,38.341,43.5,32S38.341,20.5,32,20.5z"/>
	</g>
	<g>
		<path class="st0" d="M32,41.5c-5.238,0-9.5-4.262-9.5-9.5s4.262-9.5,9.5-9.5s9.5,4.262,9.5,9.5S37.238,41.5,32,41.5z M32,23.5
			c-4.687,0-8.5,3.813-8.5,8.5s3.813,8.5,8.5,8.5s8.5-3.813,8.5-8.5S36.687,23.5,32,23.5z"/>
	</g>
	<g>
		<path class="st0" d="M32.712,36h-3.25c-0.276,0-0.5-0.224-0.5-0.5s0.224-0.5,0.5-0.5h3.25c0.689,0,1.25-0.561,1.25-1.25
			s-0.561-1.25-1.25-1.25h-1.5c-1.241,0-2.25-1.009-2.25-2.25S29.972,28,31.212,28h2.75c0.276,0,0.5,0.224,0.5,0.5
			s-0.224,0.5-0.5,0.5h-2.75c-0.689,0-1.25,0.561-1.25,1.25s0.561,1.25,1.25,1.25h1.5c1.241,0,2.25,1.009,2.25,2.25
			S33.953,36,32.712,36z"/>
	</g>
	<g>
		<path class="st0" d="M31.962,29c-0.276,0-0.5-0.224-0.5-0.5V27c0-0.276,0.224-0.5,0.5-0.5s0.5,0.224,0.5,0.5v1.5
			C32.462,28.776,32.239,29,31.962,29z"/>
	</g>
	<g>
		<path class="st0" d="M31.962,37.5c-0.276,0-0.5-0.224-0.5-0.5v-1.5c0-0.276,0.224-0.5,0.5-0.5s0.5,0.224,0.5,0.5V37
			C32.462,37.276,32.239,37.5,31.962,37.5z"/>
	</g>
	<g>
		<circle class="st1" cx="45" cy="9.483" r="4"/>
		<path class="st0" d="M45,13.983c-2.481,0-4.5-2.019-4.5-4.5s2.019-4.5,4.5-4.5s4.5,2.019,4.5,4.5S47.481,13.983,45,13.983z
			 M45,5.983c-1.93,0-3.5,1.57-3.5,3.5s1.57,3.5,3.5,3.5s3.5-1.57,3.5-3.5S46.93,5.983,45,5.983z"/>
	</g>
	<g>
		<circle class="st1" cx="19" cy="54.517" r="4"/>
		<path class="st0" d="M19,59.017c-2.481,0-4.5-2.019-4.5-4.5s2.019-4.5,4.5-4.5s4.5,2.019,4.5,4.5S21.481,59.017,19,59.017z
			 M19,51.017c-1.93,0-3.5,1.57-3.5,3.5s1.57,3.5,3.5,3.5s3.5-1.57,3.5-3.5S20.93,51.017,19,51.017z"/>
	</g>
	<g>
		<path class="st0" d="M25,20.375c-0.173,0-0.341-0.089-0.434-0.25l-6-10.392c-0.138-0.239-0.056-0.545,0.183-0.683
			c0.238-0.138,0.544-0.057,0.683,0.183l6,10.392c0.138,0.239,0.056,0.545-0.183,0.683C25.171,20.354,25.085,20.375,25,20.375z"/>
	</g>
	<g>
		<path class="st0" d="M45,55.017c-0.173,0-0.341-0.089-0.434-0.25l-6-10.392c-0.138-0.239-0.056-0.545,0.183-0.683
			c0.238-0.139,0.544-0.057,0.683,0.183l6,10.392c0.138,0.239,0.056,0.545-0.183,0.683C45.171,54.995,45.085,55.017,45,55.017z"/>
	</g>
	<g>
		<circle class="st1" cx="19" cy="9.483" r="4"/>
		<path class="st0" d="M19,13.983c-2.481,0-4.5-2.019-4.5-4.5s2.019-4.5,4.5-4.5s4.5,2.019,4.5,4.5S21.481,13.983,19,13.983z
			 M19,5.983c-1.93,0-3.5,1.57-3.5,3.5s1.57,3.5,3.5,3.5s3.5-1.57,3.5-3.5S20.93,5.983,19,5.983z"/>
	</g>
	<g>
		<circle class="st1" cx="45" cy="54.517" r="4"/>
		<path class="st0" d="M45,59.017c-2.481,0-4.5-2.019-4.5-4.5s2.019-4.5,4.5-4.5s4.5,2.019,4.5,4.5S47.481,59.017,45,59.017z
			 M45,51.017c-1.93,0-3.5,1.57-3.5,3.5s1.57,3.5,3.5,3.5s3.5-1.57,3.5-3.5S46.93,51.017,45,51.017z"/>
	</g>
	<g>
		<circle class="st1" cx="6" cy="32.005" r="4"/>
		<path class="st0" d="M6,36.504c-2.481,0-4.5-2.019-4.5-4.5s2.019-4.5,4.5-4.5s4.5,2.019,4.5,4.5S8.481,36.504,6,36.504z M6,28.504
			c-1.93,0-3.5,1.57-3.5,3.5s1.57,3.5,3.5,3.5s3.5-1.57,3.5-3.5S7.93,28.504,6,28.504z"/>
	</g>
	<g>
		<circle class="st1" cx="58" cy="32.005" r="4"/>
		<path class="st0" d="M58,36.504c-2.481,0-4.5-2.019-4.5-4.5s2.019-4.5,4.5-4.5s4.5,2.019,4.5,4.5S60.481,36.504,58,36.504z
			 M58,28.504c-1.93,0-3.5,1.57-3.5,3.5s1.57,3.5,3.5,3.5s3.5-1.57,3.5-3.5S59.93,28.504,58,28.504z"/>
	</g>
</g>
</svg>
