<?xml version="1.0" encoding="utf-8"?>
<!-- Generator: Adobe Illustrator 21.1.0, SVG Export Plug-In . SVG Version: 6.00 Build 0)  -->
<svg version="1.1" id="Icon_Set" xmlns="http://www.w3.org/2000/svg" xmlns:xlink="http://www.w3.org/1999/xlink" x="0px" y="0px"
	 viewBox="0 0 64 64" style="enable-background:new 0 0 64 64;" xml:space="preserve">
<style type="text/css">
	.st0{fill:#263238;}
	.st1{fill:#40C4FF;}
	.st2{fill:#FFD740;}
	.st3{fill:#FF5252;}
	.st4{fill:#4DB6AC;}
	.st5{fill:#FFFFFF;}
	.st6{fill:#4FC3F7;}
</style>
<g id="Digital_Signature">
	<g>
		<path class="st0" d="M40.499,37.5h-12c-0.276,0-0.5-0.224-0.5-0.5s0.224-0.5,0.5-0.5h12c0.276,0,0.5,0.224,0.5,0.5
			S40.775,37.5,40.499,37.5z"/>
	</g>
	<g>
		<path class="st0" d="M40.499,42.5h-12c-0.276,0-0.5-0.224-0.5-0.5s0.224-0.5,0.5-0.5h12c0.276,0,0.5,0.224,0.5,0.5
			S40.775,42.5,40.499,42.5z"/>
	</g>
	<g>
		<path class="st3" d="M44.661,42.661v8.485l2.475-2.475l3.536,3.536c0.391,0.391,1.024,0.391,1.414,0l2.121-2.121
			c0.391-0.391,0.391-1.024,0-1.414l-3.536-3.536l2.475-2.475H44.661z"/>
		<path class="st0" d="M51.379,52.999c-0.384,0-0.769-0.146-1.061-0.438l-3.182-3.182L45.015,51.5
			c-0.144,0.144-0.359,0.186-0.545,0.108c-0.187-0.077-0.309-0.26-0.309-0.462v-8.485c0-0.276,0.224-0.5,0.5-0.5h8.485
			c0.202,0,0.385,0.122,0.462,0.309s0.034,0.402-0.108,0.545l-2.121,2.121l3.182,3.183c0.585,0.585,0.585,1.536,0,2.121
			l-2.121,2.121C52.147,52.853,51.763,52.999,51.379,52.999z M47.137,48.172c0.128,0,0.256,0.049,0.354,0.146l3.535,3.535
			c0.195,0.195,0.512,0.195,0.707,0l2.121-2.121c0.195-0.195,0.195-0.512,0-0.707l-3.535-3.536c-0.195-0.195-0.195-0.512,0-0.707
			l1.621-1.621h-6.778v6.778l1.622-1.621C46.881,48.221,47.009,48.172,47.137,48.172z"/>
	</g>
	<g>
		<polygon class="st2" points="23.499,17.5 20.499,15.5 17.499,17.5 17.499,9.5 23.499,9.5 		"/>
		<path class="st0" d="M23.499,18c-0.097,0-0.193-0.028-0.277-0.084l-2.723-1.815l-2.723,1.815
			c-0.154,0.102-0.351,0.111-0.514,0.024c-0.162-0.087-0.264-0.256-0.264-0.44v-8c0-0.276,0.224-0.5,0.5-0.5h6
			c0.276,0,0.5,0.224,0.5,0.5v8c0,0.185-0.102,0.354-0.264,0.44C23.661,17.98,23.58,18,23.499,18z M20.499,15
			c0.097,0,0.193,0.028,0.277,0.084l2.223,1.481V10h-5v6.565l2.223-1.481C20.306,15.028,20.402,15,20.499,15z"/>
	</g>
	<g>
		<path class="st0" d="M18.5,53h-10C7.121,53,6,51.848,6,50.431v-7.861C6,41.152,7.121,40,8.5,40h10c1.379,0,2.5,1.152,2.5,2.569
			v7.861C21,51.848,19.879,53,18.5,53z M8.5,41C7.673,41,7,41.704,7,42.569v7.861C7,51.296,7.673,52,8.5,52h10
			c0.827,0,1.5-0.704,1.5-1.569v-7.861C20,41.704,19.327,41,18.5,41H8.5z"/>
	</g>
	<g>
		<path class="st0" d="M18.5,41h-3c-0.276,0-0.5-0.224-0.5-0.5V37c0-0.275-0.225-0.5-0.5-0.5h-2c-0.275,0-0.5,0.225-0.5,0.5v3.5
			c0,0.276-0.224,0.5-0.5,0.5h-3C8.224,41,8,40.776,8,40.5V37c0-2.481,2.019-4.5,4.5-4.5h2c2.481,0,4.5,2.019,4.5,4.5v3.5
			C19,40.776,18.776,41,18.5,41z M16,40h2v-3c0-1.93-1.57-3.5-3.5-3.5h-2C10.57,33.5,9,35.07,9,37v3h2v-3c0-0.827,0.673-1.5,1.5-1.5
			h2c0.827,0,1.5,0.673,1.5,1.5V40z"/>
	</g>
	<g>
		<path class="st1" d="M49.499,33h-20c-0.552,0-1-0.448-1-1v-7c0-0.552,0.448-1,1-1h20c0.552,0,1,0.448,1,1v7
			C50.499,32.552,50.052,33,49.499,33z"/>
		<path class="st0" d="M49.499,33.5h-20c-0.827,0-1.5-0.673-1.5-1.5v-7c0-0.827,0.673-1.5,1.5-1.5h20c0.827,0,1.5,0.673,1.5,1.5v7
			C50.999,32.827,50.326,33.5,49.499,33.5z M29.499,24.5c-0.275,0-0.5,0.225-0.5,0.5v7c0,0.275,0.225,0.5,0.5,0.5h20
			c0.275,0,0.5-0.225,0.5-0.5v-7c0-0.275-0.225-0.5-0.5-0.5H29.499z"/>
	</g>
	<g>
		<path class="st0" d="M47.499,41.161c-0.276,0-0.5-0.224-0.5-0.5V35c0-0.276,0.224-0.5,0.5-0.5s0.5,0.224,0.5,0.5v5.661
			C47.999,40.938,47.775,41.161,47.499,41.161z"/>
	</g>
	<g>
		<path class="st0" d="M44.999,58h-31c-1.654,0-3-1.346-3-3v-0.5c0-0.276,0.224-0.5,0.5-0.5s0.5,0.224,0.5,0.5V55
			c0,1.103,0.897,2,2,2h31c1.103,0,2-0.897,2-2v-3.136c0-0.276,0.224-0.5,0.5-0.5s0.5,0.224,0.5,0.5V55
			C47.999,56.654,46.653,58,44.999,58z"/>
	</g>
	<g>
		<path class="st0" d="M11.499,31.584c-0.276,0-0.5-0.224-0.5-0.5V12c0-1.654,1.346-3,3-3h31c1.654,0,3,1.346,3,3v10
			c0,0.276-0.224,0.5-0.5,0.5s-0.5-0.224-0.5-0.5V12c0-1.103-0.897-2-2-2h-31c-1.103,0-2,0.897-2,2v19.084
			C11.999,31.36,11.775,31.584,11.499,31.584z"/>
	</g>
	<g>
		<path class="st0" d="M34.999,29h-3c-0.276,0-0.5-0.224-0.5-0.5s0.224-0.5,0.5-0.5h3c0.276,0,0.5,0.224,0.5,0.5
			S35.275,29,34.999,29z"/>
	</g>
	<g>
		<path class="st0" d="M40.999,29h-3c-0.276,0-0.5-0.224-0.5-0.5s0.224-0.5,0.5-0.5h3c0.276,0,0.5,0.224,0.5,0.5
			S41.275,29,40.999,29z"/>
	</g>
	<g>
		<path class="st0" d="M46.999,29h-3c-0.276,0-0.5-0.224-0.5-0.5s0.224-0.5,0.5-0.5h3c0.276,0,0.5,0.224,0.5,0.5
			S47.275,29,46.999,29z"/>
	</g>
	<g>
		<path class="st0" d="M22,7h-1c-0.276,0-0.5-0.224-0.5-0.5S20.724,6,21,6h1c0.276,0,0.5,0.224,0.5,0.5S22.276,7,22,7z"/>
	</g>
	<g>
		<path class="st0" d="M40,7H24c-0.276,0-0.5-0.224-0.5-0.5S23.724,6,24,6h16c0.276,0,0.5,0.224,0.5,0.5S40.276,7,40,7z"/>
	</g>
	<g>
		<path class="st0" d="M40,61h-1c-0.276,0-0.5-0.224-0.5-0.5S38.724,60,39,60h1c0.276,0,0.5,0.224,0.5,0.5S40.276,61,40,61z"/>
	</g>
	<g>
		<path class="st0" d="M37,61H21c-0.276,0-0.5-0.224-0.5-0.5S20.724,60,21,60h16c0.276,0,0.5,0.224,0.5,0.5S37.276,61,37,61z"/>
	</g>
	<g>
		<path class="st0" d="M51,6h-4c-0.276,0-0.5-0.224-0.5-0.5S46.724,5,47,5h4c0.276,0,0.5,0.224,0.5,0.5S51.276,6,51,6z"/>
	</g>
	<g>
		<path class="st0" d="M49,8c-0.276,0-0.5-0.224-0.5-0.5v-4C48.5,3.224,48.724,3,49,3s0.5,0.224,0.5,0.5v4C49.5,7.776,49.276,8,49,8
			z"/>
	</g>
	<g>
		<path class="st0" d="M57.5,12.5h-4c-0.276,0-0.5-0.224-0.5-0.5s0.224-0.5,0.5-0.5h4c0.276,0,0.5,0.224,0.5,0.5
			S57.776,12.5,57.5,12.5z"/>
	</g>
	<g>
		<path class="st0" d="M55.5,14.5c-0.276,0-0.5-0.224-0.5-0.5v-4c0-0.276,0.224-0.5,0.5-0.5S56,9.724,56,10v4
			C56,14.276,55.776,14.5,55.5,14.5z"/>
	</g>
	<g>
		<path class="st0" d="M44.499,18c-0.276,0-0.5-0.224-0.5-0.5v-4c0-0.275-0.225-0.5-0.5-0.5h-4c-0.276,0-0.5-0.224-0.5-0.5
			s0.224-0.5,0.5-0.5h4c0.827,0,1.5,0.673,1.5,1.5v4C44.999,17.776,44.775,18,44.499,18z"/>
	</g>
</g>
</svg>
