<?xml version="1.0" encoding="utf-8"?>
<!-- Generator: Adobe Illustrator 21.1.0, SVG Export Plug-In . SVG Version: 6.00 Build 0)  -->
<svg version="1.1" id="Icon_Set" xmlns="http://www.w3.org/2000/svg" xmlns:xlink="http://www.w3.org/1999/xlink" x="0px" y="0px"
	 viewBox="0 0 64 64" style="enable-background:new 0 0 64 64;" xml:space="preserve">
<style type="text/css">
	.st0{fill:#263238;}
	.st1{fill:#40C4FF;}
	.st2{fill:#FFD740;}
	.st3{fill:#FF5252;}
	.st4{fill:#4DB6AC;}
	.st5{fill:#FFFFFF;}
	.st6{fill:#4FC3F7;}
</style>
<g id="Fintech">
	<g>
		<path class="st0" d="M46.5,49.501h-29c-1.654,0-3-1.346-3-3v-29c0-1.654,1.346-3,3-3h29c1.654,0,3,1.346,3,3v29
			C49.5,48.155,48.154,49.501,46.5,49.501z M17.5,15.501c-1.103,0-2,0.897-2,2v29c0,1.103,0.897,2,2,2h29c1.103,0,2-0.897,2-2v-29
			c0-1.103-0.897-2-2-2H17.5z"/>
	</g>
	<g>
		<path class="st0" d="M43.5,46.501h-23c-1.654,0-3-1.346-3-3v-23c0-1.654,1.346-3,3-3h23c1.654,0,3,1.346,3,3v23
			C46.5,45.155,45.154,46.501,43.5,46.501z M20.5,18.501c-1.103,0-2,0.897-2,2v23c0,1.103,0.897,2,2,2h23c1.103,0,2-0.897,2-2v-23
			c0-1.103-0.897-2-2-2H20.5z"/>
	</g>
	<g>
		<path class="st2" d="M38.5,41.001h-13c-1.381,0-2.5-1.119-2.5-2.5v-13c0-1.381,1.119-2.5,2.5-2.5h13c1.381,0,2.5,1.119,2.5,2.5v13
			C41,39.882,39.881,41.001,38.5,41.001z"/>
		<path class="st0" d="M38.5,41.501h-13c-1.654,0-3-1.346-3-3v-13c0-1.654,1.346-3,3-3h13c1.654,0,3,1.346,3,3v13
			C41.5,40.155,40.154,41.501,38.5,41.501z M25.5,23.501c-1.103,0-2,0.897-2,2v13c0,1.103,0.897,2,2,2h13c1.103,0,2-0.897,2-2v-13
			c0-1.103-0.897-2-2-2H25.5z"/>
	</g>
	<g>
		<path class="st0" d="M32,15.501c-0.276,0-0.5-0.224-0.5-0.5v-6c0-0.276,0.224-0.5,0.5-0.5s0.5,0.224,0.5,0.5v6
			C32.5,15.277,32.276,15.501,32,15.501z"/>
	</g>
	<g>
		<path class="st0" d="M32,9.501c-1.378,0-2.5-1.121-2.5-2.5s1.122-2.5,2.5-2.5s2.5,1.121,2.5,2.5S33.378,9.501,32,9.501z M32,5.501
			c-0.827,0-1.5,0.673-1.5,1.5s0.673,1.5,1.5,1.5s1.5-0.673,1.5-1.5S32.827,5.501,32,5.501z"/>
	</g>
	<g>
		<path class="st0" d="M21,7.501c-1.378,0-2.5-1.121-2.5-2.5s1.122-2.5,2.5-2.5s2.5,1.121,2.5,2.5S22.378,7.501,21,7.501z M21,3.501
			c-0.827,0-1.5,0.673-1.5,1.5s0.673,1.5,1.5,1.5s1.5-0.673,1.5-1.5S21.827,3.501,21,3.501z"/>
	</g>
	<g>
		<path class="st0" d="M26,15.501c-0.109,0-0.22-0.036-0.312-0.109l-5-4c-0.119-0.095-0.188-0.238-0.188-0.391v-4
			c0-0.276,0.224-0.5,0.5-0.5s0.5,0.224,0.5,0.5v3.76l4.812,3.85c0.215,0.173,0.25,0.487,0.078,0.703
			C26.292,15.437,26.146,15.501,26,15.501z"/>
	</g>
	<g>
		<path class="st0" d="M43,7.501c-1.378,0-2.5-1.121-2.5-2.5s1.122-2.5,2.5-2.5s2.5,1.121,2.5,2.5S44.378,7.501,43,7.501z M43,3.501
			c-0.827,0-1.5,0.673-1.5,1.5s0.673,1.5,1.5,1.5s1.5-0.673,1.5-1.5S43.827,3.501,43,3.501z"/>
	</g>
	<g>
		<path class="st0" d="M38,15.501c-0.147,0-0.292-0.064-0.391-0.188c-0.172-0.216-0.137-0.53,0.078-0.703l4.812-3.85v-3.76
			c0-0.276,0.224-0.5,0.5-0.5s0.5,0.224,0.5,0.5v4c0,0.152-0.069,0.296-0.188,0.391l-5,4C38.22,15.465,38.11,15.501,38,15.501z"/>
	</g>
	<g>
		<path class="st0" d="M32,55.501c-0.276,0-0.5-0.224-0.5-0.5v-6c0-0.276,0.224-0.5,0.5-0.5s0.5,0.224,0.5,0.5v6
			C32.5,55.277,32.276,55.501,32,55.501z"/>
	</g>
	<g>
		<path class="st0" d="M32,59.501c-1.378,0-2.5-1.121-2.5-2.5s1.122-2.5,2.5-2.5s2.5,1.121,2.5,2.5S33.378,59.501,32,59.501z
			 M32,55.501c-0.827,0-1.5,0.673-1.5,1.5s0.673,1.5,1.5,1.5s1.5-0.673,1.5-1.5S32.827,55.501,32,55.501z"/>
	</g>
	<g>
		<path class="st0" d="M43,61.501c-1.378,0-2.5-1.121-2.5-2.5s1.122-2.5,2.5-2.5s2.5,1.121,2.5,2.5S44.378,61.501,43,61.501z
			 M43,57.501c-0.827,0-1.5,0.673-1.5,1.5s0.673,1.5,1.5,1.5s1.5-0.673,1.5-1.5S43.827,57.501,43,57.501z"/>
	</g>
	<g>
		<path class="st0" d="M43,57.501c-0.276,0-0.5-0.224-0.5-0.5v-3.76l-4.812-3.85c-0.215-0.173-0.25-0.487-0.078-0.703
			c0.173-0.214,0.487-0.25,0.703-0.078l5,4c0.119,0.095,0.188,0.238,0.188,0.391v4C43.5,57.277,43.276,57.501,43,57.501z"/>
	</g>
	<g>
		<path class="st0" d="M21,61.501c-1.378,0-2.5-1.121-2.5-2.5s1.122-2.5,2.5-2.5s2.5,1.121,2.5,2.5S22.378,61.501,21,61.501z
			 M21,57.501c-0.827,0-1.5,0.673-1.5,1.5s0.673,1.5,1.5,1.5s1.5-0.673,1.5-1.5S21.827,57.501,21,57.501z"/>
	</g>
	<g>
		<path class="st0" d="M21,57.501c-0.276,0-0.5-0.224-0.5-0.5v-4c0-0.152,0.069-0.296,0.188-0.391l5-4
			c0.216-0.172,0.53-0.137,0.703,0.078c0.172,0.216,0.137,0.53-0.078,0.703l-4.812,3.85v3.76C21.5,57.277,21.276,57.501,21,57.501z"
			/>
	</g>
	<g>
		<path class="st0" d="M55,32.501h-6c-0.276,0-0.5-0.224-0.5-0.5s0.224-0.5,0.5-0.5h6c0.276,0,0.5,0.224,0.5,0.5
			S55.276,32.501,55,32.501z"/>
	</g>
	<g>
		<path class="st0" d="M57,34.501c-1.378,0-2.5-1.121-2.5-2.5s1.122-2.5,2.5-2.5s2.5,1.121,2.5,2.5S58.378,34.501,57,34.501z
			 M57,30.501c-0.827,0-1.5,0.673-1.5,1.5s0.673,1.5,1.5,1.5s1.5-0.673,1.5-1.5S57.827,30.501,57,30.501z"/>
	</g>
	<g>
		<path class="st0" d="M59,23.501c-1.378,0-2.5-1.121-2.5-2.5s1.122-2.5,2.5-2.5s2.5,1.121,2.5,2.5S60.378,23.501,59,23.501z
			 M59,19.501c-0.827,0-1.5,0.673-1.5,1.5s0.673,1.5,1.5,1.5s1.5-0.673,1.5-1.5S59.827,19.501,59,19.501z"/>
	</g>
	<g>
		<path class="st0" d="M49,26.501c-0.109,0-0.22-0.036-0.312-0.109c-0.215-0.173-0.25-0.487-0.078-0.703l4-5
			c0.095-0.118,0.239-0.188,0.391-0.188h4c0.276,0,0.5,0.224,0.5,0.5s-0.224,0.5-0.5,0.5h-3.76l-3.85,4.812
			C49.292,26.437,49.146,26.501,49,26.501z"/>
	</g>
	<g>
		<path class="st0" d="M59,45.501c-1.378,0-2.5-1.121-2.5-2.5s1.122-2.5,2.5-2.5s2.5,1.121,2.5,2.5S60.378,45.501,59,45.501z
			 M59,41.501c-0.827,0-1.5,0.673-1.5,1.5s0.673,1.5,1.5,1.5s1.5-0.673,1.5-1.5S59.827,41.501,59,41.501z"/>
	</g>
	<g>
		<path class="st0" d="M57,43.501h-4c-0.152,0-0.295-0.069-0.391-0.188l-4-5c-0.172-0.216-0.137-0.53,0.078-0.703
			c0.216-0.172,0.53-0.137,0.703,0.078l3.85,4.812H57c0.276,0,0.5,0.224,0.5,0.5S57.276,43.501,57,43.501z"/>
	</g>
	<g>
		<path class="st0" d="M15,32.501H9c-0.276,0-0.5-0.224-0.5-0.5s0.224-0.5,0.5-0.5h6c0.276,0,0.5,0.224,0.5,0.5
			S15.276,32.501,15,32.501z"/>
	</g>
	<g>
		<path class="st0" d="M7,34.501c-1.378,0-2.5-1.121-2.5-2.5s1.122-2.5,2.5-2.5s2.5,1.121,2.5,2.5S8.378,34.501,7,34.501z M7,30.501
			c-0.827,0-1.5,0.673-1.5,1.5s0.673,1.5,1.5,1.5s1.5-0.673,1.5-1.5S7.827,30.501,7,30.501z"/>
	</g>
	<g>
		<path class="st0" d="M5,45.501c-1.378,0-2.5-1.121-2.5-2.5s1.122-2.5,2.5-2.5s2.5,1.121,2.5,2.5S6.378,45.501,5,45.501z M5,41.501
			c-0.827,0-1.5,0.673-1.5,1.5s0.673,1.5,1.5,1.5s1.5-0.673,1.5-1.5S5.827,41.501,5,41.501z"/>
	</g>
	<g>
		<path class="st0" d="M11,43.501H7c-0.276,0-0.5-0.224-0.5-0.5s0.224-0.5,0.5-0.5h3.76l3.85-4.812
			c0.174-0.214,0.487-0.25,0.703-0.078c0.215,0.173,0.25,0.487,0.078,0.703l-4,5C11.295,43.432,11.152,43.501,11,43.501z"/>
	</g>
	<g>
		<path class="st0" d="M5,23.501c-1.378,0-2.5-1.121-2.5-2.5s1.122-2.5,2.5-2.5s2.5,1.121,2.5,2.5S6.378,23.501,5,23.501z M5,19.501
			c-0.827,0-1.5,0.673-1.5,1.5s0.673,1.5,1.5,1.5s1.5-0.673,1.5-1.5S5.827,19.501,5,19.501z"/>
	</g>
	<g>
		<path class="st0" d="M15,26.501c-0.147,0-0.292-0.064-0.391-0.188l-3.85-4.812H7c-0.276,0-0.5-0.224-0.5-0.5s0.224-0.5,0.5-0.5h4
			c0.152,0,0.295,0.069,0.391,0.188l4,5c0.172,0.216,0.137,0.53-0.078,0.703C15.22,26.465,15.11,26.501,15,26.501z"/>
	</g>
	<g>
		<path class="st0" d="M35.5,37.001H28c-0.276,0-0.5-0.224-0.5-0.5s0.224-0.5,0.5-0.5h7.5c0.276,0,0.5-0.225,0.5-0.5v-2.5
			c0-0.275-0.224-0.5-0.5-0.5h-7c-0.827,0-1.5-0.673-1.5-1.5v-2.5c0-0.827,0.673-1.5,1.5-1.5H36c0.276,0,0.5,0.224,0.5,0.5
			s-0.224,0.5-0.5,0.5h-7.5c-0.276,0-0.5,0.225-0.5,0.5v2.5c0,0.275,0.224,0.5,0.5,0.5h7c0.827,0,1.5,0.673,1.5,1.5v2.5
			C37,36.328,36.327,37.001,35.5,37.001z"/>
	</g>
	<g>
		<path class="st0" d="M30.5,28.001c-0.276,0-0.5-0.224-0.5-0.5v-2c0-0.276,0.224-0.5,0.5-0.5s0.5,0.224,0.5,0.5v2
			C31,27.777,30.776,28.001,30.5,28.001z"/>
	</g>
	<g>
		<path class="st0" d="M30.5,39.001c-0.276,0-0.5-0.224-0.5-0.5v-2c0-0.276,0.224-0.5,0.5-0.5s0.5,0.224,0.5,0.5v2
			C31,38.777,30.776,39.001,30.5,39.001z"/>
	</g>
	<g>
		<path class="st0" d="M33,28.001c-0.276,0-0.5-0.224-0.5-0.5v-2c0-0.276,0.224-0.5,0.5-0.5s0.5,0.224,0.5,0.5v2
			C33.5,27.777,33.276,28.001,33,28.001z"/>
	</g>
	<g>
		<path class="st0" d="M33,39.001c-0.276,0-0.5-0.224-0.5-0.5v-2c0-0.276,0.224-0.5,0.5-0.5s0.5,0.224,0.5,0.5v2
			C33.5,38.777,33.276,39.001,33,39.001z"/>
	</g>
</g>
</svg>
