<?xml version="1.0" encoding="utf-8"?>
<!-- Generator: Adobe Illustrator 21.1.0, SVG Export Plug-In . SVG Version: 6.00 Build 0)  -->
<svg version="1.1" id="Icon_Set" xmlns="http://www.w3.org/2000/svg" xmlns:xlink="http://www.w3.org/1999/xlink" x="0px" y="0px"
	 viewBox="0 0 64 64" style="enable-background:new 0 0 64 64;" xml:space="preserve">
<style type="text/css">
	.st0{fill:#263238;}
	.st1{fill:#40C4FF;}
	.st2{fill:#FFD740;}
	.st3{fill:#FF5252;}
	.st4{fill:#4DB6AC;}
	.st5{fill:#FFFFFF;}
	.st6{fill:#4FC3F7;}
</style>
<g id="Internet_Of_Things">
	<g>
		<path class="st0" d="M46.001,56.5c-0.172,0-0.339-0.089-0.432-0.248l-5.411-9.276c-0.14-0.239-0.059-0.545,0.18-0.684
			c0.236-0.138,0.544-0.059,0.684,0.18l5.411,9.276c0.14,0.239,0.059,0.545-0.18,0.684C46.174,56.478,46.087,56.5,46.001,56.5z"/>
	</g>
	<g>
		<path class="st0" d="M23.455,17.85c-0.172,0-0.339-0.089-0.432-0.248l-5.454-9.35c-0.14-0.239-0.059-0.545,0.18-0.684
			c0.237-0.139,0.544-0.059,0.684,0.18l5.454,9.35c0.14,0.239,0.059,0.545-0.18,0.684C23.628,17.828,23.541,17.85,23.455,17.85z"/>
	</g>
	<g>
		<path class="st0" d="M18.001,56.5c-0.086,0-0.173-0.022-0.252-0.068c-0.238-0.139-0.319-0.445-0.18-0.684l5.411-9.276
			c0.139-0.239,0.446-0.318,0.684-0.18c0.238,0.139,0.319,0.445,0.18,0.684l-5.411,9.276C18.34,56.411,18.173,56.5,18.001,56.5z"/>
	</g>
	<g>
		<path class="st0" d="M40.547,17.85c-0.086,0-0.173-0.022-0.252-0.068c-0.238-0.139-0.319-0.445-0.18-0.684l5.454-9.35
			c0.139-0.239,0.445-0.319,0.684-0.18c0.238,0.139,0.319,0.445,0.18,0.684l-5.454,9.35C40.886,17.761,40.719,17.85,40.547,17.85z"
			/>
	</g>
	<g>
		<circle class="st1" cx="32.083" cy="32" r="15"/>
		<path class="st0" d="M32.084,47.5c-8.547,0-15.5-6.953-15.5-15.5s6.953-15.5,15.5-15.5s15.5,6.953,15.5,15.5
			S40.631,47.5,32.084,47.5z M32.084,17.5c-7.995,0-14.5,6.505-14.5,14.5s6.505,14.5,14.5,14.5s14.5-6.505,14.5-14.5
			S40.079,17.5,32.084,17.5z"/>
	</g>
	<g>
		<path class="st0" d="M32.084,25c-4.324,0-8.48-0.934-11.401-2.563c-0.241-0.134-0.328-0.439-0.193-0.68
			c0.136-0.242,0.438-0.328,0.68-0.193C23.946,23.112,27.925,24,32.084,24c4.158,0,8.137-0.888,10.914-2.437
			c0.239-0.134,0.545-0.049,0.68,0.193c0.135,0.241,0.048,0.546-0.193,0.68C40.563,24.066,36.408,25,32.084,25z"/>
	</g>
	<g>
		<path class="st0" d="M43.241,42.5c-0.083,0-0.166-0.021-0.243-0.063C40.221,40.888,36.242,40,32.084,40
			c-4.159,0-8.138,0.888-10.915,2.437c-0.24,0.134-0.544,0.05-0.68-0.193c-0.135-0.241-0.048-0.546,0.193-0.68
			C23.604,39.934,27.76,39,32.084,39s8.479,0.934,11.4,2.563c0.241,0.134,0.328,0.439,0.193,0.68
			C43.586,42.408,43.416,42.5,43.241,42.5z"/>
	</g>
	<g>
		<path class="st0" d="M32.084,47.5c-5.396,0-9.786-6.953-9.786-15.5s4.39-15.5,9.786-15.5c5.396,0,9.785,6.953,9.785,15.5
			S37.479,47.5,32.084,47.5z M32.084,17.5c-4.845,0-8.786,6.505-8.786,14.5s3.941,14.5,8.786,14.5c4.844,0,8.785-6.505,8.785-14.5
			S36.928,17.5,32.084,17.5z"/>
	</g>
	<g>
		<path class="st0" d="M32.084,47.5c-0.276,0-0.5-0.224-0.5-0.5V17c0-0.276,0.224-0.5,0.5-0.5s0.5,0.224,0.5,0.5v30
			C32.584,47.276,32.36,47.5,32.084,47.5z"/>
	</g>
	<g>
		<path class="st0" d="M47.083,32.5h-30c-0.276,0-0.5-0.224-0.5-0.5s0.224-0.5,0.5-0.5h30c0.276,0,0.5,0.224,0.5,0.5
			S47.359,32.5,47.083,32.5z"/>
	</g>
	<g>
		<path class="st0" d="M46.001,56.5h-28c-0.178,0-0.342-0.094-0.432-0.248l-14-24c-0.091-0.156-0.091-0.348,0-0.504l14-24
			c0.09-0.154,0.254-0.248,0.432-0.248h28c0.178,0,0.342,0.094,0.432,0.248l14,24c0.091,0.156,0.091,0.348,0,0.504l-14,24
			C46.343,56.406,46.179,56.5,46.001,56.5z M18.288,55.5h27.426L59.422,32L45.714,8.5H18.288L4.58,32L18.288,55.5z"/>
	</g>
	<g>
		<circle class="st2" cx="46.001" cy="8" r="3"/>
		<path class="st0" d="M46.001,11.5c-1.93,0-3.5-1.57-3.5-3.5s1.57-3.5,3.5-3.5s3.5,1.57,3.5,3.5S47.931,11.5,46.001,11.5z
			 M46.001,5.5c-1.379,0-2.5,1.122-2.5,2.5s1.121,2.5,2.5,2.5s2.5-1.122,2.5-2.5S47.38,5.5,46.001,5.5z"/>
	</g>
	<g>
		<circle class="st2" cx="18.001" cy="56" r="3"/>
		<path class="st0" d="M18.001,59.5c-1.93,0-3.5-1.57-3.5-3.5s1.57-3.5,3.5-3.5s3.5,1.57,3.5,3.5S19.931,59.5,18.001,59.5z
			 M18.001,53.5c-1.379,0-2.5,1.122-2.5,2.5s1.121,2.5,2.5,2.5s2.5-1.122,2.5-2.5S19.38,53.5,18.001,53.5z"/>
	</g>
	<g>
		<circle class="st2" cx="46.001" cy="56" r="3"/>
		<path class="st0" d="M46.001,59.5c-1.93,0-3.5-1.57-3.5-3.5s1.57-3.5,3.5-3.5s3.5,1.57,3.5,3.5S47.931,59.5,46.001,59.5z
			 M46.001,53.5c-1.379,0-2.5,1.122-2.5,2.5s1.121,2.5,2.5,2.5s2.5-1.122,2.5-2.5S47.38,53.5,46.001,53.5z"/>
	</g>
	<g>
		<circle class="st2" cx="18.001" cy="8" r="3"/>
		<path class="st0" d="M18.001,11.5c-1.93,0-3.5-1.57-3.5-3.5s1.57-3.5,3.5-3.5s3.5,1.57,3.5,3.5S19.931,11.5,18.001,11.5z
			 M18.001,5.5c-1.379,0-2.5,1.122-2.5,2.5s1.121,2.5,2.5,2.5s2.5-1.122,2.5-2.5S19.38,5.5,18.001,5.5z"/>
	</g>
	<g>
		<path class="st0" d="M15.084,32.5H4.001c-0.276,0-0.5-0.224-0.5-0.5s0.224-0.5,0.5-0.5h11.083c0.276,0,0.5,0.224,0.5,0.5
			S15.36,32.5,15.084,32.5z"/>
	</g>
	<g>
		<path class="st0" d="M60.001,32.5H49.084c-0.276,0-0.5-0.224-0.5-0.5s0.224-0.5,0.5-0.5h10.917c0.276,0,0.5,0.224,0.5,0.5
			S60.277,32.5,60.001,32.5z"/>
	</g>
	<g>
		<circle class="st2" cx="60.001" cy="32" r="3"/>
		<path class="st0" d="M60.001,35.5c-1.93,0-3.5-1.57-3.5-3.5s1.57-3.5,3.5-3.5s3.5,1.57,3.5,3.5S61.931,35.5,60.001,35.5z
			 M60.001,29.5c-1.379,0-2.5,1.122-2.5,2.5s1.121,2.5,2.5,2.5s2.5-1.122,2.5-2.5S61.38,29.5,60.001,29.5z"/>
	</g>
	<g>
		<circle class="st2" cx="4.001" cy="32" r="3"/>
		<path class="st0" d="M4.001,35.5c-1.93,0-3.5-1.57-3.5-3.5s1.57-3.5,3.5-3.5s3.5,1.57,3.5,3.5S5.931,35.5,4.001,35.5z M4.001,29.5
			c-1.379,0-2.5,1.122-2.5,2.5s1.121,2.5,2.5,2.5s2.5-1.122,2.5-2.5S5.38,29.5,4.001,29.5z"/>
	</g>
</g>
</svg>
