<?xml version="1.0" encoding="utf-8"?>
<!-- Generator: Adobe Illustrator 22.0.0, SVG Export Plug-In . SVG Version: 6.00 Build 0)  -->
<svg version="1.1" id="Icon_Set" xmlns="http://www.w3.org/2000/svg" xmlns:xlink="http://www.w3.org/1999/xlink" x="0px" y="0px"
	 viewBox="0 0 64 64" style="enable-background:new 0 0 64 64;" xml:space="preserve">
<style type="text/css">
	.st0{fill:#40C4FF;}
	.st1{fill:#263238;}
	.st2{fill:#FFD740;}
	.st3{fill:#FF5252;}
	.st4{fill:#4DB6AC;}
	.st5{fill:#FFFFFF;}
	.st6{fill:#4FC3F7;}
	.st7{fill:#37474F;}
</style>
<g>
	<g>
		<path class="st1" d="M36.816,60.5c-1.82,0-3.652-0.472-5.306-1.441l-5.492-3.22c-1.455-0.853-3.117-1.304-4.805-1.304h-2.785
			c-0.276,0-0.5-0.224-0.5-0.5s0.224-0.5,0.5-0.5h2.785c1.865,0,3.702,0.499,5.311,1.442l5.492,3.22
			c3.728,2.185,8.466,1.578,11.521-1.479l10.447-10.447c0.78-0.78,0.78-2.049,0-2.829c-0.756-0.755-2.072-0.755-2.828,0
			l-4.243,4.243c-0.195,0.195-0.512,0.195-0.707,0s-0.195-0.512,0-0.707l4.243-4.243c1.133-1.132,3.109-1.133,4.242,0
			c1.17,1.17,1.17,3.073,0,4.243L44.245,57.424C42.223,59.447,39.533,60.5,36.816,60.5z"/>
	</g>
	<g>
		<path class="st0" d="M8.929,41.034v14.5c0,0.552,0.448,1,1,1h5.5c0.552,0,1-0.448,1-1v-14.5c0-0.552-0.448-1-1-1h-5.5
			C9.377,40.034,8.929,40.482,8.929,41.034z"/>
		<path class="st1" d="M15.429,57.034h-5.5c-0.827,0-1.5-0.673-1.5-1.5v-14.5c0-0.827,0.673-1.5,1.5-1.5h5.5
			c0.827,0,1.5,0.673,1.5,1.5v14.5C16.929,56.361,16.256,57.034,15.429,57.034z M9.929,40.534c-0.275,0-0.5,0.224-0.5,0.5v14.5
			c0,0.276,0.225,0.5,0.5,0.5h5.5c0.275,0,0.5-0.224,0.5-0.5v-14.5c0-0.276-0.225-0.5-0.5-0.5H9.929z"/>
	</g>
	<g>
		<path class="st1" d="M41.429,52.034h-6.5c-0.276,0-0.5-0.224-0.5-0.5s0.224-0.5,0.5-0.5h6.5c1.103,0,2-0.897,2-2s-0.897-2-2-2h-7
			c-0.061,0-0.121-0.011-0.178-0.033l-7.92-3.017c-1.655-0.63-3.392-0.95-5.162-0.95h-2.74c-0.276,0-0.5-0.224-0.5-0.5
			s0.224-0.5,0.5-0.5h2.74c1.893,0,3.749,0.342,5.518,1.016l7.834,2.984h6.908c1.654,0,3,1.346,3,3S43.083,52.034,41.429,52.034z"/>
	</g>
	<g>
		<path class="st4" d="M35.003,26.003c-2.206,2.206-1.997,5.992-1.997,5.992s3.786,0.209,5.992-1.997s1.997-5.992,1.997-5.992
			S37.209,23.796,35.003,26.003z"/>
		<path class="st1" d="M33.293,32.501c-0.18,0-0.291-0.006-0.315-0.007c-0.255-0.014-0.458-0.217-0.472-0.472
			c-0.009-0.164-0.193-4.036,2.144-6.373l0,0c2.338-2.338,6.214-2.153,6.373-2.143c0.255,0.014,0.458,0.217,0.472,0.472
			c0.009,0.164,0.193,4.036-2.144,6.373C37.37,32.332,34.287,32.501,33.293,32.501z M35.356,26.356
			c-1.583,1.584-1.824,4.101-1.854,5.14c1.04-0.03,3.562-0.273,5.141-1.852c1.583-1.584,1.824-4.101,1.854-5.14
			C39.457,24.535,36.936,24.777,35.356,26.356L35.356,26.356z"/>
	</g>
	<g>
		<path class="st4" d="M28.997,26.003c2.206,2.206,1.997,5.992,1.997,5.992s-3.786,0.209-5.992-1.997s-1.997-5.992-1.997-5.992
			S26.791,23.796,28.997,26.003z"/>
		<path class="st1" d="M30.707,32.501c-0.994,0-4.077-0.169-6.058-2.15c-2.337-2.337-2.152-6.209-2.144-6.373
			c0.014-0.254,0.217-0.458,0.472-0.472c0.161-0.01,4.035-0.196,6.373,2.143l0,0c2.337,2.337,2.152,6.209,2.144,6.373
			c-0.014,0.254-0.217,0.458-0.472,0.472C30.998,32.495,30.887,32.501,30.707,32.501z M23.504,24.504
			c0.03,1.04,0.274,3.561,1.853,5.14c1.584,1.583,4.101,1.824,5.14,1.852c-0.03-1.04-0.274-3.561-1.853-5.14
			C27.06,24.772,24.543,24.532,23.504,24.504z"/>
	</g>
	<g>
		<path class="st1" d="M31,38.5c-0.276,0-0.5-0.224-0.5-0.5V22c0-0.276,0.224-0.5,0.5-0.5s0.5,0.224,0.5,0.5v16
			C31.5,38.276,31.276,38.5,31,38.5z"/>
	</g>
	<g>
		<path class="st1" d="M33,38.5c-0.276,0-0.5-0.224-0.5-0.5V22c0-0.276,0.224-0.5,0.5-0.5s0.5,0.224,0.5,0.5v16
			C33.5,38.276,33.276,38.5,33,38.5z"/>
	</g>
	<g>
		<circle class="st2" cx="32" cy="13" r="9"/>
		<path class="st1" d="M32,22.5c-5.238,0-9.5-4.262-9.5-9.5s4.262-9.5,9.5-9.5s9.5,4.262,9.5,9.5S37.238,22.5,32,22.5z M32,4.5
			c-4.687,0-8.5,3.813-8.5,8.5s3.813,8.5,8.5,8.5s8.5-3.813,8.5-8.5S36.687,4.5,32,4.5z"/>
	</g>
	<g>
		<path class="st1" d="M32.713,17h-3.25c-0.276,0-0.5-0.224-0.5-0.5s0.224-0.5,0.5-0.5h3.25c0.689,0,1.25-0.561,1.25-1.25
			s-0.561-1.25-1.25-1.25h-1.5c-1.24,0-2.25-1.009-2.25-2.25S29.973,9,31.213,9h2.75c0.276,0,0.5,0.224,0.5,0.5s-0.224,0.5-0.5,0.5
			h-2.75c-0.689,0-1.25,0.561-1.25,1.25s0.561,1.25,1.25,1.25h1.5c1.24,0,2.25,1.009,2.25,2.25S33.953,17,32.713,17z"/>
	</g>
	<g>
		<path class="st1" d="M31.963,10c-0.276,0-0.5-0.224-0.5-0.5V8c0-0.276,0.224-0.5,0.5-0.5s0.5,0.224,0.5,0.5v1.5
			C32.463,9.776,32.239,10,31.963,10z"/>
	</g>
	<g>
		<path class="st1" d="M31.963,18.5c-0.276,0-0.5-0.224-0.5-0.5v-1.5c0-0.276,0.224-0.5,0.5-0.5s0.5,0.224,0.5,0.5V18
			C32.463,18.276,32.239,18.5,31.963,18.5z"/>
	</g>
	<g>
		<path class="st1" d="M19,32.25H9c-0.276,0-0.5-0.224-0.5-0.5s0.224-0.5,0.5-0.5h10c0.276,0,0.5,0.224,0.5,0.5
			S19.276,32.25,19,32.25z"/>
	</g>
	<g>
		<path class="st1" d="M7,32.25H6c-0.276,0-0.5-0.224-0.5-0.5s0.224-0.5,0.5-0.5h1c0.276,0,0.5,0.224,0.5,0.5S7.276,32.25,7,32.25z"
			/>
	</g>
	<g>
		<path class="st1" d="M55,32.25H45c-0.276,0-0.5-0.224-0.5-0.5s0.224-0.5,0.5-0.5h10c0.276,0,0.5,0.224,0.5,0.5
			S55.276,32.25,55,32.25z"/>
	</g>
	<g>
		<path class="st1" d="M58,32.25h-1c-0.276,0-0.5-0.224-0.5-0.5s0.224-0.5,0.5-0.5h1c0.276,0,0.5,0.224,0.5,0.5
			S58.276,32.25,58,32.25z"/>
	</g>
	<g>
		<path class="st1" d="M17,20.25h-4c-0.276,0-0.5-0.224-0.5-0.5s0.224-0.5,0.5-0.5h4c0.276,0,0.5,0.224,0.5,0.5
			S17.276,20.25,17,20.25z"/>
	</g>
	<g>
		<path class="st1" d="M10.5,15.25h-4c-0.276,0-0.5-0.224-0.5-0.5s0.224-0.5,0.5-0.5h4c0.276,0,0.5,0.224,0.5,0.5
			S10.776,15.25,10.5,15.25z"/>
	</g>
	<g>
		<path class="st1" d="M8.5,17.25c-0.276,0-0.5-0.224-0.5-0.5v-4c0-0.276,0.224-0.5,0.5-0.5S9,12.474,9,12.75v4
			C9,17.026,8.776,17.25,8.5,17.25z"/>
	</g>
	<g>
		<path class="st1" d="M15,22.25c-0.276,0-0.5-0.224-0.5-0.5v-4c0-0.276,0.224-0.5,0.5-0.5s0.5,0.224,0.5,0.5v4
			C15.5,22.026,15.276,22.25,15,22.25z"/>
	</g>
	<g>
		<path class="st1" d="M43.938,45.801c-0.254,0-0.471-0.193-0.496-0.451c-0.474-4.768-3.916-8.777-8.567-9.976
			c-0.268-0.069-0.428-0.342-0.359-0.609c0.069-0.267,0.339-0.428,0.609-0.359c5.056,1.304,8.798,5.663,9.312,10.846
			c0.026,0.275-0.174,0.52-0.448,0.547C43.972,45.8,43.955,45.801,43.938,45.801z"/>
	</g>
	<g>
		<path class="st1" d="M21.587,41.053c-0.085,0-0.17-0.021-0.248-0.066c-0.24-0.137-0.323-0.443-0.186-0.683
			c1.668-2.915,4.482-5.067,7.722-5.903c0.27-0.073,0.54,0.091,0.609,0.359c0.068,0.268-0.092,0.54-0.359,0.609
			c-2.979,0.77-5.568,2.75-7.104,5.433C21.929,40.962,21.76,41.053,21.587,41.053z"/>
	</g>
	<g>
		<path class="st1" d="M36,38.5h-8c-0.276,0-0.5-0.224-0.5-0.5s0.224-0.5,0.5-0.5h8c0.276,0,0.5,0.224,0.5,0.5S36.276,38.5,36,38.5z
			"/>
	</g>
</g>
</svg>
