<?xml version="1.0" encoding="utf-8"?>
<!-- Generator: Adobe Illustrator 22.0.0, SVG Export Plug-In . SVG Version: 6.00 Build 0)  -->
<svg version="1.1" id="Layer_1" xmlns="http://www.w3.org/2000/svg" xmlns:xlink="http://www.w3.org/1999/xlink" x="0px" y="0px"
	 viewBox="0 0 64 64" style="enable-background:new 0 0 64 64;" xml:space="preserve">
<style type="text/css">
	.st0{fill:#263238;}
	.st1{fill:#4FC3F7;}
	.st2{fill:#4DB6AC;}
	.st3{fill:#FF5252;}
	.st4{fill:#FFFFFF;}
	.st5{fill:#FFD740;}
	.st6{fill:#40C4FF;}
</style>
<g>
	<g>
		<path class="st0" d="M12.499,31.291h-7.5c-0.276,0-0.5-0.224-0.5-0.5s0.224-0.5,0.5-0.5h7.5c0.276,0,0.5,0.224,0.5,0.5
			S12.775,31.291,12.499,31.291z"/>
	</g>
	<g>
		<path class="st0" d="M2.999,31.291h-2c-0.276,0-0.5-0.224-0.5-0.5s0.224-0.5,0.5-0.5h2c0.276,0,0.5,0.224,0.5,0.5
			S3.275,31.291,2.999,31.291z"/>
	</g>
	<g>
		<path class="st0" d="M53.499,46.291h-7.5c-0.276,0-0.5-0.224-0.5-0.5s0.224-0.5,0.5-0.5h7.5c0.276,0,0.5,0.224,0.5,0.5
			S53.775,46.291,53.499,46.291z"/>
	</g>
	<g>
		<path class="st0" d="M57.499,46.291h-2c-0.276,0-0.5-0.224-0.5-0.5s0.224-0.5,0.5-0.5h2c0.276,0,0.5,0.224,0.5,0.5
			S57.775,46.291,57.499,46.291z"/>
	</g>
	<g>
		<path class="st0" d="M61.999,62.5c-0.276,0-0.5-0.224-0.5-0.5v-3.5c0-1.103-0.897-2-2-2h-55c-1.103,0-2,0.897-2,2V62
			c0,0.276-0.224,0.5-0.5,0.5s-0.5-0.224-0.5-0.5v-3.5c0-1.654,1.346-3,3-3h55c1.654,0,3,1.346,3,3V62
			C62.499,62.276,62.275,62.5,61.999,62.5z"/>
	</g>
	<g>
		<path class="st2" d="M60.499,8.323h-20c-1.381,0-2.5,1.119-2.5,2.5v16c0,1.381,1.119,2.5,2.5,2.5h5v2.865
			c0,0.848,0.989,1.311,1.64,0.768l4.36-3.633h9c1.381,0,2.5-1.119,2.5-2.5v-16C62.999,9.442,61.88,8.323,60.499,8.323z"/>
	</g>
	<g>
		<path class="st0" d="M21.999,31.5c-5.243,0-9.745-3.475-11.095-8.502c-1.61-0.05-2.905-1.376-2.905-2.998s1.295-2.948,2.905-2.998
			c1.35-5.027,5.852-8.502,11.095-8.502s9.746,3.475,11.096,8.502c1.61,0.05,2.904,1.376,2.904,2.998s-1.294,2.948-2.904,2.998
			C31.745,28.025,27.242,31.5,21.999,31.5z M11.222,21.979c0.24,0,0.501,0.15,0.554,0.379c1.103,4.794,5.307,8.142,10.224,8.142
			c4.918,0,9.122-3.348,10.225-8.142c0.057-0.249,0.282-0.421,0.548-0.384C32.9,21.992,32.948,22,32.999,22c1.103,0,2-0.897,2-2
			s-0.897-2-2-2c-0.051,0-0.099,0.008-0.147,0.015c-0.256,0.037-0.569-0.12-0.628-0.373C31.121,12.848,26.917,9.5,21.999,9.5
			c-4.917,0-9.121,3.348-10.224,8.142c-0.058,0.249-0.288,0.421-0.548,0.384C11.099,18.008,11.05,18,10.999,18c-1.103,0-2,0.897-2,2
			s0.897,2,2,2c0.051,0,0.1-0.008,0.149-0.015C11.172,21.981,11.197,21.979,11.222,21.979z"/>
	</g>
	<g>
		<path class="st5" d="M11.999,19h-0.5v-6.5h3v4C14.499,17.881,13.38,19,11.999,19z"/>
		<path class="st0" d="M11.999,19.5h-0.5c-0.276,0-0.5-0.224-0.5-0.5v-6.5c0-0.276,0.224-0.5,0.5-0.5h3c0.276,0,0.5,0.224,0.5,0.5v4
			C14.999,18.154,13.653,19.5,11.999,19.5z M11.999,18.5h0.01H11.999z M11.999,13v5.5c1.103,0,2-0.897,2-2V13H11.999z"/>
	</g>
	<g>
		<path class="st5" d="M29.499,12.449v4.05c0,1.381,1.119,2.5,2.5,2.5h0.5v-7.935C31.711,11.839,30.661,12.332,29.499,12.449z"/>
		<path class="st0" d="M32.499,19.5h-0.5c-1.654,0-3-1.346-3-3v-4.051c0-0.257,0.194-0.472,0.45-0.497
			c1.03-0.104,1.989-0.546,2.699-1.244c0.145-0.142,0.359-0.182,0.544-0.104c0.186,0.078,0.307,0.26,0.307,0.461V19
			C32.999,19.276,32.775,19.5,32.499,19.5z M29.999,12.883V16.5c0,1.103,0.897,2,2,2v-6.401
			C31.398,12.483,30.717,12.752,29.999,12.883z"/>
	</g>
	<g>
		<path class="st0" d="M21.999,25.497c-1.408,0-2.816-0.536-3.889-1.608c-0.195-0.195-0.195-0.512,0-0.707s0.512-0.195,0.707,0
			c1.755,1.755,4.611,1.753,6.364,0c0.195-0.195,0.512-0.195,0.707,0s0.195,0.512,0,0.707
			C24.816,24.961,23.408,25.497,21.999,25.497z"/>
	</g>
	<g>
		<path class="st5" d="M28.999,12.5h-17.5v0c0-4.142,3.358-7.5,7.5-7.5h5.205c2.171,0,4.315-0.471,6.286-1.381L33.999,2v5.5
			C33.999,10.261,31.761,12.5,28.999,12.5z"/>
		<path class="st0" d="M28.999,13h-17.5c-0.276,0-0.5-0.224-0.5-0.5c0-4.411,3.589-8,8-8h5.206c2.085,0,4.186-0.462,6.076-1.335
			l3.508-1.619c0.156-0.069,0.335-0.06,0.479,0.033c0.144,0.092,0.23,0.25,0.23,0.421v5.5C34.499,10.532,32.031,13,28.999,13z
			 M12.017,12h16.982c2.481,0,4.5-2.019,4.5-4.5V2.781l-2.798,1.292C28.68,5.007,26.434,5.5,24.205,5.5h-5.206
			C15.308,5.5,12.274,8.373,12.017,12z"/>
	</g>
	<g>
		<polygon class="st6" points="24.499,53.063 21.999,56 19.499,53.063 20.999,38 22.999,38 		"/>
		<path class="st0" d="M21.999,56.5c-0.146,0-0.286-0.064-0.381-0.176l-2.5-2.938c-0.088-0.104-0.13-0.238-0.116-0.374l1.5-15.062
			c0.025-0.256,0.24-0.45,0.497-0.45h2c0.257,0,0.472,0.194,0.497,0.45l1.5,15.062c0.014,0.136-0.028,0.271-0.116,0.374l-2.5,2.938
			C22.285,56.436,22.146,56.5,21.999,56.5z M20.018,52.9l1.981,2.328L23.98,52.9l-1.435-14.4h-1.094L20.018,52.9z"/>
	</g>
	<g>
		<path class="st0" d="M11.999,56.5c-0.276,0-0.5-0.224-0.5-0.5V46c0-0.276,0.224-0.5,0.5-0.5s0.5,0.224,0.5,0.5v10
			C12.499,56.276,12.275,56.5,11.999,56.5z"/>
	</g>
	<g>
		<path class="st0" d="M31.999,56.5c-0.276,0-0.5-0.224-0.5-0.5V46c0-0.276,0.224-0.5,0.5-0.5s0.5,0.224,0.5,0.5v10
			C32.499,56.276,32.275,56.5,31.999,56.5z"/>
	</g>
	<g>
		<path class="st0" d="M3.999,56.5c-0.276,0-0.5-0.224-0.5-0.5V42.945c0-3.205,1.903-6.091,4.849-7.354l6.973-2.988
			c0.252-0.106,0.547,0.008,0.657,0.263c0.108,0.254-0.009,0.548-0.263,0.657l-6.973,2.988c-2.578,1.104-4.243,3.63-4.243,6.434V56
			C4.499,56.276,4.275,56.5,3.999,56.5z"/>
	</g>
	<g>
		<path class="st0" d="M39.999,56.5c-0.276,0-0.5-0.224-0.5-0.5V42.945c0-2.804-1.665-5.329-4.242-6.434l-6.974-2.988
			c-0.254-0.109-0.371-0.403-0.263-0.657c0.11-0.255,0.404-0.37,0.657-0.263l6.974,2.988c2.944,1.263,4.848,4.149,4.848,7.354V56
			C40.499,56.276,40.275,56.5,39.999,56.5z"/>
	</g>
	<g>
		<path class="st0" d="M15.934,38.5c-0.07,0-0.141-0.015-0.206-0.045c-0.165-0.074-0.277-0.232-0.292-0.413l-0.416-4.937
			c-0.019-0.215,0.104-0.417,0.301-0.502l2.481-1.063c0.225-0.094,0.48-0.018,0.613,0.183l2,3c0.148,0.222,0.096,0.521-0.119,0.68
			l-4.065,3C16.143,38.467,16.039,38.5,15.934,38.5z M16.046,33.381l0.311,3.686l2.962-2.186l-1.505-2.258L16.046,33.381z"/>
	</g>
	<g>
		<path class="st0" d="M28.056,38.5c-0.105,0-0.21-0.033-0.297-0.098l-4.057-3c-0.215-0.159-0.267-0.458-0.119-0.68l2-3
			c0.133-0.2,0.39-0.277,0.613-0.183l2.482,1.063c0.198,0.085,0.319,0.288,0.301,0.503l-0.426,4.937
			c-0.016,0.181-0.127,0.338-0.292,0.413C28.195,38.485,28.125,38.5,28.056,38.5z M24.679,34.881l2.956,2.186l0.317-3.686
			l-1.768-0.758L24.679,34.881z"/>
	</g>
	<g>
		<path class="st6" d="M22.999,38h-2c-0.552,0-1-0.448-1-1v-1c0-0.552,0.448-1,1-1h2c0.552,0,1,0.448,1,1v1
			C23.999,37.552,23.552,38,22.999,38z"/>
		<path class="st0" d="M22.999,38.5h-2c-0.827,0-1.5-0.673-1.5-1.5v-1c0-0.827,0.673-1.5,1.5-1.5h2c0.827,0,1.5,0.673,1.5,1.5v1
			C24.499,37.827,23.826,38.5,22.999,38.5z M20.999,35.5c-0.275,0-0.5,0.225-0.5,0.5v1c0,0.275,0.225,0.5,0.5,0.5h2
			c0.275,0,0.5-0.225,0.5-0.5v-1c0-0.275-0.225-0.5-0.5-0.5H20.999z"/>
	</g>
	<g>
		<path class="st0" d="M23.756,35.865c-0.146,0-0.287-0.064-0.382-0.178c-0.072-0.086-0.196-0.188-0.375-0.188h-2
			c-0.188,0-0.314,0.117-0.374,0.188c-0.101,0.121-0.25,0.188-0.41,0.177c-0.156-0.009-0.301-0.091-0.388-0.222l-2.244-3.365
			c-0.055-0.082-0.084-0.179-0.084-0.277v-1.761c0-0.165,0.082-0.32,0.219-0.413c0.137-0.094,0.311-0.111,0.464-0.053
			c2.457,0.965,5.178,0.965,7.635,0c0.152-0.059,0.328-0.041,0.464,0.053c0.137,0.093,0.219,0.248,0.219,0.413V32
			c0,0.099-0.029,0.195-0.084,0.277l-2.243,3.365c-0.087,0.131-0.23,0.213-0.388,0.222C23.774,35.865,23.766,35.865,23.756,35.865z
			 M20.999,34.5h2c0.221,0,0.437,0.052,0.635,0.147l1.865-2.799v-0.9c-2.271,0.732-4.729,0.732-7,0v0.9l1.866,2.799
			C20.562,34.552,20.778,34.5,20.999,34.5z"/>
	</g>
	<g>
		<path class="st0" d="M53.683,25.323c-0.136,0-0.271-0.055-0.37-0.163l-2.813-3.094l-2.812,3.093
			c-0.186,0.207-0.501,0.221-0.706,0.034c-0.205-0.186-0.22-0.502-0.034-0.706l3.183-3.5c0.189-0.209,0.551-0.208,0.74-0.001
			l3.184,3.5c0.186,0.205,0.171,0.521-0.033,0.707C53.923,25.28,53.803,25.323,53.683,25.323z"/>
	</g>
	<g>
		<path class="st0" d="M50.499,27.323c-0.276,0-0.5-0.224-0.5-0.5v-5.5c0-0.276,0.224-0.5,0.5-0.5s0.5,0.224,0.5,0.5v5.5
			C50.999,27.1,50.775,27.323,50.499,27.323z"/>
	</g>
	<g>
		<path class="st4" d="M52.499,13.323c0,4.418-2,8-2,8s-2-3.582-2-8s2-8,2-8S52.499,8.905,52.499,13.323z"/>
		<path class="st0" d="M50.499,21.823c-0.182,0-0.349-0.098-0.437-0.256c-0.084-0.151-2.063-3.748-2.063-8.244
			s1.979-8.093,2.063-8.244c0.176-0.316,0.697-0.316,0.873,0c0.084,0.151,2.063,3.748,2.063,8.244s-1.979,8.093-2.063,8.244
			C50.848,21.726,50.681,21.823,50.499,21.823z M50.5,6.479c-0.571,1.312-1.501,3.9-1.501,6.844c0,2.949,0.929,5.533,1.499,6.844
			c0.571-1.312,1.501-3.9,1.501-6.844C51.999,10.374,51.07,7.79,50.5,6.479z"/>
	</g>
	<g>
		<path class="st4" d="M54.499,22.823c-2.209,0-4-1.5-4-1.5s1.791-1.5,4-1.5s4,1.5,4,1.5S56.709,22.823,54.499,22.823z"/>
		<path class="st0" d="M54.499,23.323c-2.363,0-4.242-1.551-4.321-1.616c-0.113-0.096-0.179-0.235-0.179-0.384
			s0.065-0.288,0.179-0.384c0.079-0.065,1.958-1.616,4.321-1.616c2.364,0,4.242,1.551,4.321,1.617
			c0.113,0.095,0.179,0.235,0.179,0.383s-0.065,0.288-0.179,0.383C58.741,21.772,56.863,23.323,54.499,23.323z M51.368,21.323
			c0.653,0.409,1.822,1,3.131,1s2.478-0.591,3.131-1c-0.653-0.409-1.822-1-3.131-1S52.021,20.914,51.368,21.323z"/>
	</g>
	<g>
		<path class="st4" d="M46.499,22.823c2.209,0,4-1.5,4-1.5s-1.791-1.5-4-1.5c-2.209,0-4,1.5-4,1.5S44.29,22.823,46.499,22.823z"/>
		<path class="st0" d="M46.499,23.323c-2.363,0-4.242-1.551-4.321-1.616c-0.113-0.096-0.179-0.235-0.179-0.384
			s0.065-0.288,0.179-0.384c0.079-0.065,1.958-1.616,4.321-1.616c2.364,0,4.242,1.551,4.321,1.617
			c0.113,0.095,0.179,0.235,0.179,0.383s-0.065,0.288-0.179,0.383C50.741,21.772,48.863,23.323,46.499,23.323z M43.368,21.323
			c0.653,0.409,1.822,1,3.131,1s2.478-0.591,3.131-1c-0.653-0.409-1.822-1-3.131-1S44.021,20.914,43.368,21.323z"/>
	</g>
	<g>
		<path class="st4" d="M56.51,17.434c-2.734,2.734-6.01,3.889-6.01,3.889s1.155-3.277,3.889-6.01s6.01-3.889,6.01-3.889
			S59.244,14.7,56.51,17.434z"/>
		<path class="st0" d="M50.499,21.823c-0.13,0-0.258-0.051-0.354-0.146c-0.136-0.136-0.182-0.338-0.118-0.52
			c0.049-0.139,1.227-3.417,4.008-6.198s6.06-3.958,6.198-4.007c0.18-0.062,0.383-0.019,0.52,0.118
			c0.136,0.136,0.182,0.338,0.118,0.52c-0.049,0.139-1.227,3.416-4.008,6.197l0,0l0,0c-2.781,2.782-6.06,3.959-6.198,4.008
			C50.611,21.813,50.555,21.823,50.499,21.823z M59.439,12.384c-1.165,0.563-3.044,1.629-4.697,3.282
			c-1.657,1.657-2.722,3.533-3.283,4.697c1.165-0.563,3.044-1.629,4.697-3.283l0,0C57.813,15.423,58.878,13.548,59.439,12.384z"/>
	</g>
	<g>
		<path class="st4" d="M44.489,17.434c2.734,2.734,6.01,3.889,6.01,3.889s-1.155-3.277-3.889-6.01s-6.01-3.889-6.01-3.889
			S41.755,14.7,44.489,17.434z"/>
		<path class="st0" d="M50.499,21.823c-0.056,0-0.112-0.01-0.166-0.028c-0.139-0.049-3.416-1.226-6.197-4.008
			c-2.781-2.781-3.959-6.059-4.008-6.197c-0.063-0.182-0.018-0.384,0.118-0.52c0.137-0.136,0.342-0.18,0.52-0.118
			c0.139,0.049,3.417,1.226,6.198,4.007s3.958,6.06,4.007,6.198c0.063,0.182,0.018,0.384-0.118,0.52
			C50.757,21.772,50.629,21.823,50.499,21.823z M41.561,12.384c0.562,1.165,1.629,3.043,3.282,4.696l0,0
			c1.657,1.658,3.532,2.722,4.696,3.284c-0.562-1.166-1.629-3.044-3.282-4.698C44.6,14.009,42.725,12.945,41.561,12.384z"/>
	</g>
	<g>
		<path class="st0" d="M46.503,33.69c-0.216,0-0.434-0.048-0.641-0.144c-0.532-0.25-0.863-0.771-0.863-1.358v-2.365h-4.5
			c-1.654,0-3-1.346-3-3v-16c0-1.654,1.346-3,3-3h6.711c0.276,0,0.5,0.224,0.5,0.5s-0.224,0.5-0.5,0.5h-6.711c-1.103,0-2,0.897-2,2
			v16c0,1.103,0.897,2,2,2h5c0.276,0,0.5,0.224,0.5,0.5v2.865c0,0.295,0.221,0.421,0.288,0.452c0.067,0.032,0.307,0.119,0.532-0.068
			l4.359-3.633c0.09-0.075,0.203-0.116,0.32-0.116h9c1.103,0,2-0.897,2-2v-16c0-1.103-0.897-2-2-2h-6.71c-0.276,0-0.5-0.224-0.5-0.5
			s0.224-0.5,0.5-0.5h6.71c1.654,0,3,1.346,3,3v16c0,1.654-1.346,3-3,3H51.68l-4.22,3.517C47.183,33.571,46.845,33.69,46.503,33.69z
			"/>
	</g>
</g>
</svg>
