<?xml version="1.0" encoding="utf-8"?>
<!-- Generator: Adobe Illustrator 21.0.0, SVG Export Plug-In . SVG Version: 6.00 Build 0)  -->
<svg version="1.1" id="Layer_1" xmlns="http://www.w3.org/2000/svg" xmlns:xlink="http://www.w3.org/1999/xlink" x="0px" y="0px"
	 viewBox="0 0 64 64" style="enable-background:new 0 0 64 64;" xml:space="preserve">
<style type="text/css">
	.st0{fill:none;stroke:#263238;stroke-linecap:round;stroke-linejoin:round;stroke-miterlimit:10;}
	.st1{fill:#FFD740;stroke:#263238;stroke-linecap:round;stroke-linejoin:round;stroke-miterlimit:10;}
	.st2{fill:#40C4FF;stroke:#263238;stroke-linecap:round;stroke-linejoin:round;stroke-miterlimit:10;}
	.st3{fill:#FFFFFF;stroke:#263238;stroke-linecap:round;stroke-linejoin:round;stroke-miterlimit:10;}
	.st4{fill:#FF5252;stroke:#263238;stroke-linecap:round;stroke-linejoin:round;stroke-miterlimit:10;}
	.st5{fill:#FF5252;}
	.st6{fill:#4DB6AC;stroke:#263238;stroke-linecap:round;stroke-linejoin:round;stroke-miterlimit:10;}
	.st7{fill:#FFD740;}
	.st8{fill:#40C4FF;}
	.st9{fill:#4DB6AC;}
	.st10{fill:#FFFFFF;}
	.st11{fill:#263238;stroke:#263238;stroke-linecap:round;stroke-linejoin:round;stroke-miterlimit:10;}
	.st12{fill:#4FC3F7;}
	.st13{fill:#E0E0E0;stroke:#263238;stroke-linecap:round;stroke-linejoin:round;stroke-miterlimit:10;}
</style>
<g id="Mobile_Payment">
	<g>
		<g>
			<g>
				<g>
					<circle class="st9" cx="54.5" cy="17" r="9"/>
				</g>
			</g>
			<g>
				<g>
					<path class="st10" d="M55.3,16.5h-1.7c-0.6,0-1.2-0.5-1.2-1.2c0-0.6,0.5-1.2,1.2-1.2h2.5c0.3,0,0.5-0.2,0.5-0.5
						s-0.2-0.5-0.5-0.5H55V12c0-0.3-0.2-0.5-0.5-0.5S54,11.7,54,12v1.2h-0.3c-1.2,0-2.2,1-2.2,2.2s1,2.2,2.2,2.2h1.7
						c0.6,0,1.2,0.5,1.2,1.2c0,0.6-0.5,1.2-1.2,1.2h-2.5c-0.3,0-0.5,0.2-0.5,0.5s0.2,0.5,0.5,0.5H54V22c0,0.3,0.2,0.5,0.5,0.5
						S55,22.3,55,22v-1.2h0.3c1.2,0,2.2-1,2.2-2.2S56.5,16.5,55.3,16.5z"/>
				</g>
			</g>
		</g>
		<g>
			<path class="st0" d="M39.5,44v7c0,2.8-2.2,5-5,5h-19c-2.8,0-5-2.2-5-5V13c0-2.8,2.2-5,5-5h19c2.8,0,5,2.2,5,5v7"/>
			<line class="st0" x1="39.5" y1="50" x2="10.5" y2="50"/>
			<line class="st0" x1="10.5" y1="14" x2="39.5" y2="14"/>
			<line class="st11" x1="22" y1="11" x2="28" y2="11"/>
			<path class="st0" d="M27,54h-4c-0.6,0-1-0.4-1-1l0,0c0-0.6,0.4-1,1-1h4c0.6,0,1,0.4,1,1l0,0C28,53.6,27.6,54,27,54z"/>
		</g>
		<g>
			<path class="st2" d="M52.8,56c-0.4,0-0.8-0.1-1.1-0.4l-5-4.9c-0.6-0.6-0.6-1.5,0-2.1s1.5-0.6,2.1,0l3.9,3.9l8.1-8.1
				c0.6-0.6,1.5-0.6,2.1,0c0.6,0.6,0.6,1.5,0,2.1l-9.2,9.2C53.6,55.9,53.2,56,52.8,56z"/>
		</g>
		<g>
			<path class="st0" d="M49.5,42h-25c-1.4,0-2.5-1.1-2.5-2.5v-15c0-1.4,1.1-2.5,2.5-2.5h25c1.4,0,2.5,1.1,2.5,2.5v15
				C52,40.9,50.9,42,49.5,42z"/>
			<rect x="22" y="26" class="st1" width="30" height="4"/>
			<g>
				<circle class="st0" cx="47" cy="36.5" r="2"/>
				<path class="st0" d="M45,36.5c0-0.6,0.3-1.2,0.8-1.5c-0.3-0.3-0.8-0.5-1.2-0.5c-1.1,0-2,0.9-2,2s0.9,2,2,2
					c0.5,0,0.9-0.2,1.2-0.5C45.3,37.7,45,37.1,45,36.5z"/>
			</g>
		</g>
		<g>
			<line class="st0" x1="25" y1="35" x2="6" y2="35"/>
			<line class="st0" x1="1.5" y1="37" x2="0.5" y2="37"/>
			<line class="st0" x1="19" y1="37" x2="3.5" y2="37"/>
		</g>
	</g>
</g>
</svg>
