<?xml version="1.0" encoding="utf-8"?>
<!-- Generator: Adobe Illustrator 22.0.0, SVG Export Plug-In . SVG Version: 6.00 Build 0)  -->
<svg version="1.1" id="Icon_Set" xmlns="http://www.w3.org/2000/svg" xmlns:xlink="http://www.w3.org/1999/xlink" x="0px" y="0px"
	 viewBox="0 0 64 64" style="enable-background:new 0 0 64 64;" xml:space="preserve">
<style type="text/css">
	.st0{fill:#40C4FF;}
	.st1{fill:#263238;}
	.st2{fill:#FFD740;}
	.st3{fill:#FF5252;}
	.st4{fill:#4DB6AC;}
	.st5{fill:#FFFFFF;}
	.st6{fill:#4FC3F7;}
	.st7{fill:#37474F;}
</style>
<g>
	<g>
		<path class="st1" d="M55.75,15.75h-7c-0.276,0-0.5-0.224-0.5-0.5s0.224-0.5,0.5-0.5h6.5v-4c0-2.206-1.794-4-4-4
			c-0.276,0-0.5-0.224-0.5-0.5s0.224-0.5,0.5-0.5c2.757,0,5,2.243,5,5v4.5C56.25,15.526,56.026,15.75,55.75,15.75z"/>
	</g>
	<g>
		<path class="st1" d="M10.25,47.25c-0.276,0-0.5-0.224-0.5-0.5v-35.5c0-3.033,2.468-5.5,5.5-5.5h36c0.276,0,0.5,0.224,0.5,0.5
			s-0.224,0.5-0.5,0.5c-2.206,0-4,1.794-4,4v17c0,0.276-0.224,0.5-0.5,0.5s-0.5-0.224-0.5-0.5v-17c0-1.634,0.788-3.087,2.003-4
			H15.25c-2.481,0-4.5,2.019-4.5,4.5v35.5C10.75,47.026,10.526,47.25,10.25,47.25z"/>
	</g>
	<g>
		<path class="st1" d="M36.5,33.75h-16c-0.276,0-0.5-0.224-0.5-0.5s0.224-0.5,0.5-0.5h16c0.276,0,0.5,0.224,0.5,0.5
			S36.776,33.75,36.5,33.75z"/>
	</g>
	<g>
		<path class="st1" d="M33,43.25h-9c-0.276,0-0.5-0.224-0.5-0.5s0.224-0.5,0.5-0.5h9c0.276,0,0.5,0.224,0.5,0.5
			S33.276,43.25,33,43.25z"/>
	</g>
	<g>
		<path class="st1" d="M40.5,28.75h-24c-0.276,0-0.5-0.224-0.5-0.5s0.224-0.5,0.5-0.5h24c0.276,0,0.5,0.224,0.5,0.5
			S40.776,28.75,40.5,28.75z"/>
	</g>
	<g>
		<path class="st2" d="M53.25,57.75h-13c-0.552,0-1-0.448-1-1v-2c0-0.552,0.448-1,1-1h13c0.552,0,1,0.448,1,1v2
			C54.25,57.302,53.802,57.75,53.25,57.75z"/>
		<path class="st1" d="M53.25,58.25h-13c-0.827,0-1.5-0.673-1.5-1.5v-2c0-0.827,0.673-1.5,1.5-1.5h13c0.827,0,1.5,0.673,1.5,1.5v2
			C54.75,57.577,54.077,58.25,53.25,58.25z M40.25,54.25c-0.275,0-0.5,0.224-0.5,0.5v2c0,0.276,0.225,0.5,0.5,0.5h13
			c0.275,0,0.5-0.224,0.5-0.5v-2c0-0.276-0.225-0.5-0.5-0.5H40.25z"/>
	</g>
	<g>
		<path class="st2" d="M53.25,53.75h-13c-0.552,0-1-0.448-1-1v-2c0-0.552,0.448-1,1-1h13c0.552,0,1,0.448,1,1v2
			C54.25,53.302,53.802,53.75,53.25,53.75z"/>
		<path class="st1" d="M53.25,54.25h-13c-0.827,0-1.5-0.673-1.5-1.5v-2c0-0.827,0.673-1.5,1.5-1.5h13c0.827,0,1.5,0.673,1.5,1.5v2
			C54.75,53.577,54.077,54.25,53.25,54.25z M40.25,50.25c-0.275,0-0.5,0.224-0.5,0.5v2c0,0.276,0.225,0.5,0.5,0.5h13
			c0.275,0,0.5-0.224,0.5-0.5v-2c0-0.276-0.225-0.5-0.5-0.5H40.25z"/>
	</g>
	<g>
		<path class="st2" d="M53.25,49.75h-13c-0.552,0-1-0.448-1-1v-2c0-0.552,0.448-1,1-1h13c0.552,0,1,0.448,1,1v2
			C54.25,49.302,53.802,49.75,53.25,49.75z"/>
		<path class="st1" d="M53.25,50.25h-13c-0.827,0-1.5-0.673-1.5-1.5v-2c0-0.827,0.673-1.5,1.5-1.5h13c0.827,0,1.5,0.673,1.5,1.5v2
			C54.75,49.577,54.077,50.25,53.25,50.25z M40.25,46.25c-0.275,0-0.5,0.224-0.5,0.5v2c0,0.276,0.225,0.5,0.5,0.5h13
			c0.275,0,0.5-0.224,0.5-0.5v-2c0-0.276-0.225-0.5-0.5-0.5H40.25z"/>
	</g>
	<g>
		<path class="st1" d="M55.75,29.25c-0.215,0-0.406-0.138-0.475-0.342l-0.553-1.658c-0.229-0.691-0.78-1.242-1.473-1.473
			l-1.658-0.553c-0.204-0.068-0.342-0.259-0.342-0.474s0.138-0.406,0.342-0.474l1.658-0.553c0.692-0.231,1.243-0.782,1.473-1.473
			l0.553-1.659c0.137-0.408,0.812-0.408,0.949,0l0.553,1.658c0.229,0.691,0.78,1.242,1.473,1.473l1.658,0.553
			c0.204,0.068,0.342,0.259,0.342,0.474s-0.138,0.406-0.342,0.474l-1.658,0.553c-0.692,0.231-1.243,0.782-1.473,1.473l-0.553,1.659
			C56.156,29.112,55.965,29.25,55.75,29.25z M53.331,24.75l0.235,0.079c0.989,0.33,1.776,1.117,2.105,2.105l0.078,0.235l0.078-0.235
			c0.329-0.988,1.116-1.775,2.105-2.105l0.235-0.079l-0.235-0.079c-0.989-0.33-1.776-1.117-2.105-2.105l-0.078-0.235l-0.078,0.235
			c-0.329,0.988-1.116,1.775-2.105,2.105L53.331,24.75z"/>
	</g>
	<g>
		<path class="st1" d="M37.25,58.25H8.75c-2.757,0-5-2.243-5-5v-4.5c0-0.276,0.224-0.5,0.5-0.5h33c0.276,0,0.5,0.224,0.5,0.5
			s-0.224,0.5-0.5,0.5H4.75v4c0,2.206,1.794,4,4,4h28.5c0.276,0,0.5,0.224,0.5,0.5S37.526,58.25,37.25,58.25z"/>
	</g>
	<g>
		<path class="st3" d="M35.5,19.75h-14c-0.552,0-1-0.448-1-1v-3c0-0.552,0.448-1,1-1h14c0.552,0,1,0.448,1,1v3
			C36.5,19.302,36.052,19.75,35.5,19.75z"/>
		<path class="st1" d="M35.5,20.25h-14c-0.827,0-1.5-0.673-1.5-1.5v-3c0-0.827,0.673-1.5,1.5-1.5h14c0.827,0,1.5,0.673,1.5,1.5v3
			C37,19.577,36.327,20.25,35.5,20.25z M21.5,15.25c-0.275,0-0.5,0.224-0.5,0.5v3c0,0.276,0.225,0.5,0.5,0.5h14
			c0.275,0,0.5-0.224,0.5-0.5v-3c0-0.276-0.225-0.5-0.5-0.5H21.5z"/>
	</g>
	<g>
		<circle class="st2" cx="46.75" cy="37.75" r="8"/>
		<path class="st1" d="M46.75,46.25c-4.687,0-8.5-3.813-8.5-8.5s3.813-8.5,8.5-8.5s8.5,3.813,8.5,8.5S51.437,46.25,46.75,46.25z
			 M46.75,30.25c-4.136,0-7.5,3.364-7.5,7.5s3.364,7.5,7.5,7.5s7.5-3.364,7.5-7.5S50.886,30.25,46.75,30.25z"/>
	</g>
	<g>
		<path class="st1" d="M46.75,35.75c-0.276,0-0.5-0.224-0.5-0.5v-1.5c0-0.276,0.224-0.5,0.5-0.5s0.5,0.224,0.5,0.5v1.5
			C47.25,35.526,47.026,35.75,46.75,35.75z"/>
	</g>
	<g>
		<path class="st1" d="M46.75,42.25c-0.276,0-0.5-0.224-0.5-0.5v-1.5c0-0.276,0.224-0.5,0.5-0.5s0.5,0.224,0.5,0.5v1.5
			C47.25,42.026,47.026,42.25,46.75,42.25z"/>
	</g>
	<g>
		<path class="st1" d="M47.5,40.75h-2.75c-0.276,0-0.5-0.224-0.5-0.5s0.224-0.5,0.5-0.5h2.75c0.413,0,0.75-0.336,0.75-0.75
			s-0.337-0.75-0.75-0.75H46c-0.965,0-1.75-0.785-1.75-1.75s0.785-1.75,1.75-1.75h2.25c0.276,0,0.5,0.224,0.5,0.5
			s-0.224,0.5-0.5,0.5H46c-0.413,0-0.75,0.336-0.75,0.75s0.337,0.75,0.75,0.75h1.5c0.965,0,1.75,0.785,1.75,1.75
			S48.465,40.75,47.5,40.75z"/>
	</g>
	<g>
		<path class="st1" d="M6.25,39.75c-0.276,0-0.5-0.224-0.5-0.5v-14c0-0.276,0.224-0.5,0.5-0.5s0.5,0.224,0.5,0.5v14
			C6.75,39.526,6.526,39.75,6.25,39.75z"/>
	</g>
	<g>
		<path class="st1" d="M6.25,23.75c-0.276,0-0.5-0.224-0.5-0.5v-2c0-0.276,0.224-0.5,0.5-0.5s0.5,0.224,0.5,0.5v2
			C6.75,23.526,6.526,23.75,6.25,23.75z"/>
	</g>
	<g>
		<path class="st1" d="M43.75,14.75c-0.276,0-0.5-0.224-0.5-0.5v-4c0-0.276-0.225-0.5-0.5-0.5h-4c-0.276,0-0.5-0.224-0.5-0.5
			s0.224-0.5,0.5-0.5h4c0.827,0,1.5,0.673,1.5,1.5v4C44.25,14.526,44.026,14.75,43.75,14.75z"/>
	</g>
</g>
</svg>
